<svg width="292" height="1092" viewBox="0 0 292 1092" fill="none" xmlns="http://www.w3.org/2000/svg">
<path d="M0 1092H292V0H0V1092ZM132.922 21.4028C136.375 22.7857 137.74 16.9777 134.716 16.0588C131.352 15.0328 129.47 20.02 132.922 21.4028ZM72.2647 22.3039C71.9346 37.649 72.1576 55.9828 74.049 70.4804C75.9315 84.9779 82.3639 96.6474 83.8627 109.735C80.1157 103.802 78.7507 97.7269 76.7433 90.9822C74.7449 84.2285 73.1836 76.7969 72.2647 69.5882C71.3547 62.3707 68.8299 54.0112 69.5882 46.3922C70.3466 38.7731 66.9028 27.0324 72.2647 22.3039ZM169.777 37.1494C171.838 38.104 172.945 34.6335 171.294 33.902C169.43 33.0723 167.725 36.2037 169.777 37.1494ZM49.9608 43.7157C52.0841 60.0243 54.6892 79.3306 58.6861 94.7649C62.674 110.208 66.9653 125.589 73.9866 139.239C80.9989 152.898 88.8767 162.872 98.8064 174.194C108.736 185.506 118.898 192.866 129.586 203.189C140.274 213.511 149.178 222.727 157.287 235.262C165.406 247.788 172.641 260.608 176.451 275.873C180.26 291.138 178.904 309.873 188.513 323.585C198.13 337.289 199.593 355.007 199.843 372.029C200.093 389.052 197.64 408.652 192.706 424.667C192.831 407.029 198.532 385.483 197.167 366.676C195.802 347.87 191.885 332.721 181.108 317.608C179.19 325.245 178.101 333.854 175.755 341.696C174.934 333.363 182.509 318.438 175.532 310.694C168.555 302.95 162.694 298.391 154.272 293.591C145.85 288.791 137.624 284.027 128.471 281.029C160.651 325.405 185.925 377.811 181.108 434.48C177.022 430.394 180.483 420.152 179.324 413.961C178.164 407.769 178.788 399.597 177.245 393.736C175.701 387.874 174.89 380.889 173.096 375.58C171.312 370.272 170.607 362.189 165.941 362.216C165.647 347.7 156.333 331.204 149.062 318.429C141.791 305.653 134.555 291.352 124.233 280.806C113.902 270.27 97.4146 267.031 86.7623 255.826C76.1099 244.629 64.5743 236.261 57.7672 222.37C50.9511 208.488 40.1114 193.286 41.9314 177.539C50.2463 216.161 77.5195 254.622 115.088 270.324C103.365 254.854 91.2587 242.122 81.8108 225.091C72.3539 208.069 62.6651 190.877 56.4111 171.981C50.1481 153.085 40.9411 130.389 41.0392 110.627C44.8309 127.578 50.4604 146.305 56.1345 162.444C61.8176 178.574 68.1965 194.57 76.1099 209.389C84.0144 224.199 91.91 237.18 102.393 250.009C112.876 262.838 121.931 276.283 137.588 281.725C153.255 287.159 165.968 297.847 178.431 308.686C178.414 255.701 145.386 218.784 105.944 184.9C66.5014 151.015 52.3339 94.2742 49.0686 44.6078C48.8634 42.4577 46.6687 37.7472 49.0686 35.6863C48.7028 38.5233 50.5764 40.7894 49.9608 43.7157ZM124.01 50.8529C122.413 53.0744 119.237 53.9933 118.657 57.098C116.302 55.7241 116.73 52.0841 113.304 51.7451C115.418 49.8894 117.194 47.8285 118.657 45.5C119.683 47.659 121.226 50.1927 124.01 50.8529ZM148.981 51.7362C152.711 53.1369 155.119 46.7312 151.667 45.5C148.107 44.2331 145.252 50.3355 148.981 51.7362ZM130.255 98.1373C125.054 94.7738 121.271 88.5109 115.088 87.4314C110.476 96.3886 109.78 104.873 108.843 115.088C107.906 125.303 117.185 128.56 124.01 134.716C122.734 125.187 124.438 108.094 129.639 101.09C134.832 94.0779 140.301 80.1781 148.723 85.0226C157.136 89.8759 161.686 100.43 165.941 107.951C173.453 102 182.045 97.4325 191.814 97.2451C194.107 106.898 194.133 117.631 192.706 127.578C201.797 124.786 209.88 125.928 219.176 127.873C228.472 129.818 220.96 138.793 216.526 144.262C212.084 149.722 206.561 154.316 200.512 158.581C194.463 162.854 186.184 165.531 178.422 166.824C170.661 168.127 158.608 170.179 150.775 167.725C177.878 168.796 209.113 158.108 220.363 131.147C213.779 130.897 196.471 125.5 191.154 131.379C185.836 137.249 185.952 147.027 178.654 151.89C171.357 156.752 166.931 163.907 157.912 165.049C168.992 156.368 182.732 147.099 187.353 132.931C180.51 134.564 174.747 140.506 168.885 143.905C163.024 147.304 162.364 160.374 156.127 157.912C154.629 161.855 151.604 165.317 148.098 167.725C153.986 153.219 168.145 143.95 166.833 126.686C165.522 109.423 159.036 98.3068 146.314 86.5392C133.85 95.9604 127.177 108.95 125.794 124.902C124.411 140.854 139.837 152.345 143.637 166.833C130.273 156.226 126.829 135.331 109.735 127.578C112.091 141.148 122.912 151.114 131.147 161.48C123.867 153.362 112.305 149.41 109.94 137.187C107.576 124.964 96.3173 117.078 82.0784 119.549C87.3689 145.645 112.76 161.828 137.392 165.941C110.449 167.529 81.5342 143.798 78.5098 115.98C88.4752 114.999 97.254 118.514 106.167 121.333C104.641 107.398 108.245 94.8095 114.196 82.9706C120.869 85.4597 128.355 90.8394 130.255 98.1373ZM146.608 193.304C149.998 195.454 152.791 189.146 149.882 187.353C146.608 185.337 143.218 191.145 146.608 193.304ZM210.834 193.295C213.422 194.901 215.483 190.235 213.225 189.137C210.71 187.915 208.247 191.689 210.834 193.295ZM184.676 199.843C182.794 208.506 191.403 207.542 194.49 211.441C191.84 213.011 185.925 211.459 186.175 216.509C186.425 221.558 181.741 223.717 182 217.686C182.259 211.646 176.469 213.788 173.078 212.333C173.658 208.542 177.548 209.933 180.412 208.069C183.285 206.213 180.18 199.941 184.676 199.843ZM210.843 235.235C215.376 237.742 218.248 230.168 214.118 228.392C210.174 226.697 206.311 232.728 210.843 235.235ZM189.833 254.461C192.367 256.923 195.543 252.641 193.598 250.696C192.126 249.224 187.299 251.999 189.833 254.461ZM61.8532 272.706C66.7423 275.391 70.6499 266.202 66.0196 264.078C60.7826 261.679 56.9553 270.02 61.8532 272.706ZM102.598 298.873C100.403 300.371 97.9321 301.415 97.2451 304.225C93.9798 304.761 93.4534 300.05 90.1078 299.765C90.5093 296.419 94.8363 295.09 95.4608 291.735C97.6109 294.546 99.8859 296.633 102.598 298.873ZM119.353 330.294C123.599 333.506 127.677 326.297 124.01 323.853C120.611 321.587 115.106 327.091 119.353 330.294ZM132.325 347.638C134.912 349.244 136.973 344.578 134.716 343.48C132.2 342.258 129.737 346.032 132.325 347.638ZM126.089 373.519C129.229 375.607 132.146 370.129 129.363 368.461C126.356 366.659 122.948 371.432 126.089 373.519ZM152.559 404.147C154.191 393.04 157.939 381.549 162.373 371.137C155.887 379.274 150.025 393.102 152.559 404.147ZM92.7843 395.225C96.237 398.41 99.2078 397.625 102.598 395.225C101.849 388.936 93.5337 388.918 92.7843 395.225ZM121.307 397.875C124.411 398.91 125.892 393.325 123.118 392.549C119.433 391.523 118.211 396.849 121.307 397.875ZM139.176 409.5C151.863 422.401 160.704 437.897 165.049 455C174.229 447.604 184.543 442.198 195.382 438.049C197.773 446.275 197.863 455.125 198.059 463.922C208.533 462.467 219.203 461.647 230.176 462.137C226.733 500.081 189.887 534.304 150.775 528.157C158.135 526.025 170.384 525.614 178.637 522.117C186.889 518.62 194.196 515.577 200.958 509.645C207.712 503.712 212.333 499.233 216.571 491.355C220.818 483.487 224.297 474.583 225.716 465.706C215.982 465.759 206.035 464.956 197.167 468.382C196.997 477.099 192.875 488.277 188.45 495.352C184.025 502.427 178.628 509.555 171.963 514.551C165.308 519.548 155.503 527.104 148.99 523.696C171.348 514.757 190.85 493.639 193.598 469.275C181.643 472.433 166.646 478.847 164.166 491.587C161.686 504.327 154.62 516.104 144.529 523.696C150.828 512.58 159.295 501.91 161.48 488.902C153.968 494.853 149.606 503.542 146.314 512.098C146.706 504.524 149.534 496.494 156.35 490.017C163.175 483.549 164.817 472.147 163.265 462.137C153.397 467.472 150.079 479.847 143.637 488.01C141.255 472.79 164.041 464.716 160.294 450.834C156.556 436.952 148.294 425.853 139.176 414.853C127.561 422.847 120.049 436.541 115.98 449.647C135.599 466.946 147.768 494.335 141.853 520.127C139.988 496.485 135.224 468.944 114.196 454.108C109.887 465.991 112.18 477.759 121.556 485.11C130.933 492.471 133.279 502.266 137.392 512.098C130.674 502.034 124.804 490.303 114.196 482.657C115.579 499.001 126.249 512.285 136.5 524.588C127.034 524.579 118.345 520.217 110.895 514.507C103.455 508.788 99.3149 502.561 93.7478 495.076C88.1897 487.59 86.111 477.928 83.5683 468.677C81.0346 459.425 61.9157 462.887 53.5294 462.137C56.6341 501.009 94.8809 530.236 132.931 527.265C91.455 537.632 51.0225 498.769 49.0686 458.569C60.7826 458.167 72.1398 459.006 82.9706 462.137C82.5067 451.298 83.1223 440.761 86.5392 430.912C96.344 434.061 104.623 441.002 113.304 446.078C118.47 432.42 126.981 418.19 139.176 409.5ZM112.412 639.676C93.8282 608.344 86.8515 572.47 87.4314 535.294C92.0974 539.55 89.9116 551.701 90.9822 559.4C92.0528 567.108 92.481 576.289 94.3724 583.667C96.2637 591.045 96.9418 599.039 99.8591 605.837C102.768 612.644 104.864 619.648 108.228 626.018C111.582 632.396 114.821 637.312 118.88 643.022C122.939 648.732 128.81 651.194 134.493 655.066C140.167 658.947 146.207 663.015 152.559 665.549C143.093 623.1 110.146 586.415 106.167 543.323C116.311 587.289 146.804 624.768 156.127 669.118C176.808 680.698 190.841 692.626 204.991 713.039C219.141 733.451 219.845 766.184 213.823 790.157C207.81 814.138 191.189 830.089 182 852.01C180.573 850.448 182.857 847.281 182 844.873C179.903 845.631 179.118 848.655 176.647 848.441C190.993 833.712 185.372 806.545 182.196 788.47C179.02 770.395 169.51 753.168 160.365 738.037C151.212 722.915 140.363 710.897 127.355 698.782C114.348 686.666 101.795 677.325 89.4388 664.434C77.0824 651.542 67.001 638.695 58.6593 622.948C50.3177 607.211 41.5745 586.12 42.8236 568.304C48.7564 634.85 108.665 674.792 151.667 720.863C157.528 708.515 158.358 690.289 147.875 680.939C137.392 671.58 132.182 661.864 122.895 652.39C113.607 642.924 103.847 637.303 94.3456 627.409C84.8441 617.515 77.3322 609.522 70.6856 597.54C64.039 585.567 58.7932 573.782 54.4394 560.257C50.0946 546.723 46.8918 528.032 49.9608 512.99C49.4612 561.782 72.461 609.923 112.412 639.676ZM208.167 543.029C212.423 545.197 215.304 537.846 211.441 536.186C207.23 534.375 203.902 540.861 208.167 543.029ZM190.029 554.029C191.162 546.018 182.08 555.252 190.029 554.029ZM131.441 562.657C136.215 565.467 140.069 556.965 135.608 554.922C130.781 552.709 126.668 559.846 131.441 562.657ZM171.294 576.333C174.408 576.333 178.628 575.736 180.216 579.01C174.238 581.347 168.207 583.444 169.51 591.5C164.995 591.83 167.511 585.933 165.245 583.274C162.988 580.607 156.725 583.203 156.127 579.01C162.783 578.082 167.458 574.906 166.833 567.412C171.589 567.679 169.885 573.362 171.294 576.333ZM194.776 597.442C198.469 599.039 200.423 592.66 197.167 591.5C193.553 590.215 191.082 595.845 194.776 597.442ZM163.265 628.078C168.966 630.585 172.168 620.807 166.833 619.157C161.891 617.631 157.555 625.571 163.265 628.078ZM197.167 633.431C197.568 625.83 189.574 634.689 197.167 633.431ZM178.717 650.971C181.304 652.577 183.365 647.911 181.108 646.814C178.592 645.591 176.13 649.365 178.717 650.971ZM58.2757 662.569C60.8629 664.175 62.9238 659.509 60.6667 658.412C58.1508 657.19 55.6884 660.963 58.2757 662.569ZM62.451 691.422C62.4867 694.232 58.8645 695.258 57.9902 697.667C55.8401 696.676 54.7606 694.134 52.6373 693.206C53.0744 690.797 56.7679 689.905 57.098 686.961C59.1411 688.245 59.6942 690.975 62.451 691.422ZM91.2855 703.608C94.979 705.205 96.9328 698.826 93.6765 697.667C90.0632 696.382 87.592 702.011 91.2855 703.608ZM79.402 713.725C78.3492 721.942 83.7735 722.754 90.1078 724.431C84.9155 727.598 78.7775 729.258 78.5098 736.922C75.7084 731.212 73.5673 726.697 66.0196 726.216C67.8396 722.834 72.0238 724.645 74.7092 722.415C77.4035 720.194 74.7717 713.297 79.402 713.725ZM150.775 728.892C145.564 749.92 143.512 775.07 149.882 795.804C156.252 816.547 166.343 834.961 165.049 856.471C158.269 814.905 130.148 771.466 150.775 728.892ZM61.8532 756.255C64.6814 758.271 67.7415 753.569 65.1275 752.088C62.4331 750.563 59.0162 754.229 61.8532 756.255ZM108.245 760.715C112.501 762.883 115.383 755.532 111.52 753.873C107.309 752.061 103.981 758.547 108.245 760.715ZM87.4224 780.628C92.5167 781.449 93.1769 773.42 89.2157 772.608C85.3883 771.832 82.3282 779.808 87.4224 780.628ZM122.921 804.03C128.239 807.5 132.414 798.025 127.578 795.804C122.823 793.627 117.595 800.559 122.921 804.03ZM116.873 853.794C122.823 847.736 126.008 842.919 133.154 836.174C140.301 829.429 144.173 841.616 147.001 849.539C149.829 857.461 150.596 871.289 151.667 879.667C161.115 865.125 178.315 858.701 194.49 856.471C193.134 889.204 163.22 920.59 129.363 918.922C150.498 897.715 152.514 862.154 137.392 836.843C112.715 855.48 105.747 889.097 115.98 917.137C104.07 912.882 90.6253 905.539 84.0858 891.934C77.5463 878.337 64.3602 865.704 46.3922 869.853C52.1198 899.285 81.9892 921.973 111.52 920.706C78.8667 929.306 46.0353 897.545 41.9314 866.284C52.6908 865.312 62.5313 867.694 72.2647 870.745C70.9354 860.878 65.0293 849.03 66.9118 838.627C68.7942 828.225 61.5499 809.356 77.8228 816.118C94.0869 822.881 110.627 836.897 116.873 853.794ZM121.333 862.716C128.792 879.685 131.094 899.794 123.118 917.137C134.564 902.096 131.977 877.427 121.333 862.716ZM215.277 882.914C217.338 883.869 218.445 880.398 216.794 879.667C214.938 878.837 213.226 881.968 215.277 882.914ZM200.539 903.059C204.259 905.709 207.462 899.508 204.304 897.51C201.458 895.717 196.819 900.409 200.539 903.059ZM115.98 1055.42C106.773 1004.58 146.251 967.357 161.48 923.382C159.232 945.829 145.582 962.851 134.029 983.362C122.475 1003.87 115.516 1031.32 115.98 1055.42ZM179.324 925.167C179.814 932.366 172.088 924.73 179.324 925.167ZM200.735 928.735C200.048 935.917 205.482 935.141 209.657 937.657C207.168 939.2 204.188 939.013 201.627 940.333C201.94 942.894 201.387 945.142 200.735 947.471C196.828 944.732 198.63 937.362 190.922 938.549C195.159 936.426 198.567 932.973 200.735 928.735ZM115.088 929.627C103.365 955.054 90.1971 982.568 91 1010.81C103.883 981.703 120.798 952.529 142.745 929.627C133.931 944.473 123.698 956.205 115.16 971.63C106.613 987.047 96.4868 1000.4 91.0625 1018.01C85.6381 1035.63 94.7917 1059.54 99.0294 1076.83C90.9822 1064.19 89.2068 1047.59 86.5392 1033.12C81.9714 1045.19 82.0427 1059.26 80.2941 1072.37C77.9567 1047.31 86.566 1018.24 89.1532 993.8C91.7405 969.355 101.376 948.158 115.088 929.627ZM68.6961 934.088C68.1965 937.041 64.4673 938.264 64.2353 941.226C70.4982 946.213 76.3954 935.899 68.6961 934.088ZM96.353 934.98C73.3085 975.565 63.6197 1021.88 62.451 1068.8C59.5515 1044.69 64.1372 1015.74 70.2841 993.667C76.4311 971.586 82.0249 951.94 96.353 934.98ZM177.834 971.264C183.481 973.334 186.149 963.396 181.108 961.745C174.89 959.702 172.177 969.186 177.834 971.264ZM210.843 979.294C213.984 981.381 216.901 975.904 214.118 974.235C211.111 972.433 207.703 977.206 210.843 979.294ZM176.941 999.813C180.082 1001.9 182.999 996.423 180.216 994.755C177.209 992.953 173.801 997.726 176.941 999.813ZM147.01 1014.58C151.006 1017.54 154.985 1010.31 151.667 1008.14C148.018 1005.76 143.004 1011.62 147.01 1014.58Z" fill="#C99469"/>
<path d="M134.716 16.0588C131.352 15.0328 129.47 20.02 132.922 21.4028C136.375 22.7857 137.74 16.9777 134.716 16.0588Z" fill="#FBE9CC"/>
<path d="M72.2647 22.3039C66.9028 27.0324 70.3466 38.7731 69.5882 46.3922C68.8299 54.0112 71.3547 62.3707 72.2647 69.5882C73.1836 76.7969 74.7449 84.2285 76.7433 90.9822C78.7507 97.7269 80.1157 103.802 83.8627 109.735C82.3639 96.6474 75.9315 84.9779 74.049 70.4804C72.1576 55.9828 71.9346 37.649 72.2647 22.3039Z" fill="#F2D9BD"/>
<path d="M171.294 33.902C169.43 33.0723 167.725 36.2037 169.777 37.1494C171.838 38.104 172.945 34.6335 171.294 33.902Z" fill="#FAE6CA"/>
<path d="M49.0686 44.6078C49.1132 44.2956 49.9072 43.9298 49.9608 43.7157C50.5764 40.7894 48.7028 38.5233 49.0686 35.6863C46.6687 37.7472 48.8634 42.4577 49.0686 44.6078Z" fill="#E6BB9C"/>
<path d="M49.0686 44.6078C52.3339 94.2742 66.5014 151.015 105.944 184.9C145.386 218.784 178.414 255.701 178.431 308.686C165.968 297.847 153.255 287.159 137.588 281.725C121.931 276.283 112.876 262.838 102.393 250.009C91.91 237.18 84.0144 224.199 76.1099 209.389C68.1965 194.57 61.8176 178.574 56.1345 162.444C50.4604 146.305 44.8309 127.578 41.0392 110.627C40.9411 130.389 50.1481 153.085 56.4111 171.981C62.6651 190.877 72.3539 208.069 81.8108 225.091C91.2587 242.122 103.365 254.854 115.088 270.324C77.5195 254.622 50.2463 216.161 41.9314 177.539C40.1114 193.286 50.9511 208.488 57.7672 222.37C64.5743 236.261 76.1099 244.629 86.7623 255.826C97.4146 267.031 113.902 270.27 124.233 280.806C134.555 291.352 141.791 305.653 149.062 318.429C156.333 331.204 165.647 347.7 165.941 362.216C170.607 362.189 171.312 370.272 173.096 375.58C174.89 380.889 175.701 387.874 177.245 393.736C178.788 399.597 178.164 407.769 179.324 413.961C180.483 420.152 177.022 430.394 181.108 434.48C185.925 377.811 160.651 325.405 128.471 281.029C137.624 284.027 145.85 288.791 154.272 293.591C162.694 298.391 168.555 302.95 175.532 310.694C182.509 318.438 174.934 333.363 175.755 341.696C178.101 333.854 179.19 325.245 181.108 317.608C191.885 332.721 195.802 347.87 197.167 366.676C198.532 385.483 192.831 407.029 192.706 424.667C197.64 408.652 200.093 389.052 199.843 372.029C199.593 355.007 198.13 337.289 188.513 323.585C178.904 309.873 180.26 291.138 176.451 275.873C172.641 260.608 165.406 247.788 157.287 235.262C149.178 222.727 140.274 213.511 129.586 203.189C118.898 192.866 108.736 185.506 98.8064 174.194C88.8767 162.872 80.9989 152.898 73.9866 139.239C66.9653 125.589 62.674 110.208 58.6861 94.7649C54.6892 79.3306 52.0841 60.0243 49.9608 43.7157C49.9072 43.9298 49.1132 44.2956 49.0686 44.6078Z" fill="#F6E3C6"/>
<path d="M124.01 50.8529C121.226 50.1927 119.683 47.659 118.657 45.5C117.194 47.8285 115.418 49.8894 113.304 51.7451C116.73 52.0841 116.302 55.7241 118.657 57.098C119.237 53.9933 122.413 53.0744 124.01 50.8529Z" fill="#F8E5CA"/>
<path d="M151.667 45.5C148.107 44.2331 145.252 50.3355 148.981 51.7362C152.711 53.1369 155.119 46.7312 151.667 45.5Z" fill="#F7E2C5"/>
<path d="M130.255 98.1373C128.355 90.8394 120.869 85.4597 114.196 82.9706C108.245 94.8095 104.641 107.398 106.167 121.333C97.254 118.514 88.4752 114.999 78.5098 115.98C81.5342 143.798 110.449 167.529 137.392 165.941C112.76 161.828 87.3689 145.645 82.0784 119.549C96.3173 117.078 107.576 124.964 109.94 137.187C112.305 149.41 123.867 153.362 131.147 161.48C122.912 151.114 112.091 141.148 109.735 127.578C126.829 135.331 130.273 156.226 143.637 166.833C139.837 152.345 124.411 140.854 125.794 124.902C127.177 108.95 133.85 95.9604 146.314 86.5392C159.036 98.3068 165.522 109.423 166.833 126.686C168.145 143.95 153.986 153.219 148.098 167.725C151.604 165.317 154.629 161.855 156.127 157.912C162.364 160.374 163.024 147.304 168.885 143.905C174.747 140.506 180.51 134.564 187.353 132.931C182.732 147.099 168.992 156.368 157.912 165.049C166.931 163.907 171.357 156.752 178.654 151.89C185.952 147.027 185.836 137.249 191.154 131.379C196.471 125.5 213.779 130.897 220.363 131.147C209.113 158.108 177.878 168.796 150.775 167.725C158.608 170.179 170.661 168.127 178.422 166.824C186.184 165.531 194.463 162.854 200.512 158.581C206.561 154.316 212.084 149.722 216.526 144.262C220.96 138.793 228.472 129.818 219.176 127.873C209.88 125.928 201.797 124.786 192.706 127.578C194.133 117.631 194.107 106.898 191.814 97.2451C182.045 97.4325 173.453 102 165.941 107.951C161.686 100.43 157.136 89.8759 148.723 85.0226C140.301 80.1781 134.832 94.0779 129.639 101.09C124.438 108.094 122.734 125.187 124.01 134.716C117.185 128.56 107.906 125.303 108.843 115.088C109.78 104.873 110.476 96.3886 115.088 87.4314C121.271 88.5109 125.054 94.7738 130.255 98.1373ZM189.137 99.9216C189.512 106.782 194.178 122.288 188.861 128.194C183.552 134.109 173.685 133.609 168.618 140.069C172.623 131.308 166.584 118.791 167.734 110.619C168.885 102.455 184.552 103 189.137 99.9216Z" fill="#F7E4C7"/>
<path d="M189.137 99.9216C184.552 103 168.885 102.455 167.734 110.619C166.584 118.791 172.623 131.308 168.618 140.069C173.685 133.609 183.552 134.109 188.861 128.194C194.178 122.288 189.512 106.782 189.137 99.9216Z" fill="#C99469"/>
<path d="M149.882 187.353C146.608 185.337 143.218 191.145 146.608 193.304C149.998 195.454 152.791 189.146 149.882 187.353Z" fill="#FAE8CA"/>
<path d="M213.225 189.137C210.71 187.915 208.247 191.689 210.834 193.295C213.422 194.901 215.483 190.235 213.225 189.137Z" fill="#FBE9CE"/>
<path d="M184.676 199.843C180.18 199.941 183.285 206.213 180.412 208.069C177.548 209.933 173.658 208.542 173.078 212.333C176.469 213.788 182.259 211.646 182 217.686C181.741 223.717 186.425 221.558 186.175 216.509C185.925 211.459 191.84 213.011 194.49 211.441C191.403 207.542 182.794 208.506 184.676 199.843Z" fill="#F9E7CA"/>
<path d="M214.118 228.392C210.174 226.697 206.311 232.728 210.843 235.235C215.376 237.742 218.248 230.168 214.118 228.392Z" fill="#FBEBCD"/>
<path d="M193.598 250.696C192.126 249.224 187.299 251.999 189.833 254.461C192.367 256.923 195.543 252.641 193.598 250.696Z" fill="#FBEBCE"/>
<path d="M66.0196 264.078C60.7826 261.679 56.9553 270.02 61.8532 272.706C66.7423 275.391 70.6499 266.202 66.0196 264.078Z" fill="#FBEBCF"/>
<path d="M102.598 298.873C99.8859 296.633 97.6109 294.546 95.4608 291.735C94.8363 295.09 90.5093 296.419 90.1078 299.765C93.4534 300.05 93.9798 304.761 97.2451 304.225C97.9321 301.415 100.403 300.371 102.598 298.873Z" fill="#FAEACD"/>
<path d="M124.01 323.853C120.611 321.587 115.106 327.091 119.353 330.294C123.599 333.506 127.677 326.297 124.01 323.853Z" fill="#F9E6C9"/>
<path d="M134.716 343.48C132.2 342.258 129.737 346.032 132.325 347.638C134.912 349.244 136.973 344.578 134.716 343.48Z" fill="#F1D4B7"/>
<path d="M129.363 368.461C126.356 366.659 122.948 371.432 126.089 373.519C129.229 375.607 132.146 370.129 129.363 368.461Z" fill="#F8E6C9"/>
<path d="M162.373 371.137C155.887 379.274 150.025 393.102 152.559 404.147C154.191 393.04 157.939 381.549 162.373 371.137Z" fill="#F3DCC2"/>
<path d="M102.598 395.225C101.849 388.936 93.5337 388.918 92.7843 395.225C96.237 398.41 99.2078 397.625 102.598 395.225Z" fill="#FAE8CE"/>
<path d="M123.118 392.549C119.433 391.523 118.211 396.849 121.307 397.875C124.411 398.91 125.892 393.325 123.118 392.549Z" fill="#F9E4C6"/>
<path d="M139.176 409.5C126.981 418.19 118.47 432.42 113.304 446.078C104.623 441.002 96.344 434.061 86.5392 430.912C83.1223 440.761 82.5067 451.298 82.9706 462.137C72.1398 459.006 60.7826 458.167 49.0686 458.569C51.0225 498.769 91.455 537.632 132.931 527.265C94.8809 530.236 56.6341 501.009 53.5294 462.137C61.9157 462.887 81.0346 459.425 83.5683 468.677C86.111 477.928 88.1897 487.59 93.7478 495.076C99.3149 502.561 103.455 508.788 110.895 514.507C118.345 520.217 127.034 524.579 136.5 524.588C126.249 512.285 115.579 499.001 114.196 482.657C124.804 490.303 130.674 502.034 137.392 512.098C133.279 502.266 130.933 492.471 121.556 485.11C112.18 477.759 109.887 465.991 114.196 454.108C135.224 468.944 139.988 496.485 141.853 520.127C147.768 494.335 135.599 466.946 115.98 449.647C120.049 436.541 127.561 422.847 139.176 414.853C148.294 425.853 156.556 436.952 160.294 450.834C164.041 464.716 141.255 472.79 143.637 488.01C150.079 479.847 153.397 467.472 163.265 462.137C164.817 472.147 163.175 483.549 156.35 490.017C149.534 496.494 146.706 504.524 146.314 512.098C149.606 503.542 153.968 494.853 161.48 488.902C159.295 501.91 150.828 512.58 144.529 523.696C154.62 516.104 161.686 504.327 164.166 491.587C166.646 478.847 181.643 472.433 193.598 469.275C190.85 493.639 171.348 514.757 148.99 523.696C155.503 527.104 165.308 519.548 171.963 514.551C178.628 509.555 184.025 502.427 188.45 495.352C192.875 488.277 196.997 477.099 197.167 468.382C206.035 464.956 215.982 465.759 225.716 465.706C224.297 474.583 220.818 483.487 216.571 491.355C212.333 499.233 207.712 503.712 200.958 509.645C194.196 515.577 186.889 518.62 178.637 522.117C170.384 525.614 158.135 526.025 150.775 528.157C189.887 534.304 226.733 500.081 230.176 462.137C219.203 461.647 208.533 462.467 198.059 463.922C197.863 455.125 197.773 446.275 195.382 438.049C184.543 442.198 174.229 447.604 165.049 455C160.704 437.897 151.863 422.401 139.176 409.5ZM109.735 474.627C103.41 469.328 95.8355 468.641 89.1443 463.993C82.4621 459.336 88.4574 443.554 88.3235 436.265C95.9961 438.825 101.706 442.046 108.174 447.64C114.642 453.242 107.175 466.339 109.735 474.627ZM192.706 443.402C195.07 452.288 197.336 466.304 187.157 468.186C176.977 470.069 174.31 476.626 165.941 480.873C166.352 472.335 163.14 458.783 171.517 454.331C179.886 449.87 183.668 445.525 192.706 443.402ZM129.363 520.127C106.934 512.285 89.5993 490.097 87.4314 466.598C99.0116 469.837 111.19 476.296 112.403 488.911C113.625 501.517 122.618 510.296 129.363 520.127Z" fill="#F8E6C9"/>
<path d="M109.735 474.627C107.175 466.339 114.642 453.242 108.174 447.64C101.706 442.046 95.9961 438.825 88.3235 436.265C88.4574 443.554 82.4621 459.336 89.1443 463.993C95.8355 468.641 103.41 469.328 109.735 474.627Z" fill="#C99469"/>
<path d="M192.706 443.402C183.668 445.525 179.886 449.87 171.517 454.331C163.14 458.783 166.352 472.335 165.941 480.873C174.31 476.626 176.977 470.069 187.157 468.186C197.336 466.304 195.07 452.288 192.706 443.402Z" fill="#C99469"/>
<path d="M129.363 520.127C122.618 510.296 113.625 501.517 112.403 488.911C111.19 476.296 99.0116 469.837 87.4314 466.598C89.5993 490.097 106.934 512.285 129.363 520.127Z" fill="#C99469"/>
<path d="M112.412 639.676C72.461 609.923 49.4612 561.782 49.9608 512.99C46.8918 528.032 50.0946 546.723 54.4394 560.257C58.7932 573.782 64.039 585.567 70.6856 597.54C77.3322 609.522 84.8441 617.515 94.3456 627.409C103.847 637.303 113.607 642.924 122.895 652.39C132.182 661.864 137.392 671.58 147.875 680.939C158.358 690.289 157.528 708.515 151.667 720.863C108.665 674.792 48.7564 634.85 42.8236 568.304C41.5745 586.12 50.3177 607.211 58.6593 622.948C67.001 638.695 77.0824 651.542 89.4388 664.434C101.795 677.325 114.348 686.666 127.355 698.782C140.363 710.897 151.212 722.915 160.365 738.037C169.51 753.168 179.02 770.395 182.196 788.47C185.372 806.545 190.993 833.712 176.647 848.441C179.118 848.655 179.903 845.631 182 844.873C182.857 847.281 180.573 850.448 182 852.01C191.189 830.089 207.81 814.138 213.823 790.157C219.845 766.184 219.141 733.451 204.991 713.039C190.841 692.626 176.808 680.698 156.127 669.118C146.804 624.768 116.311 587.289 106.167 543.323C110.146 586.415 143.093 623.1 152.559 665.549C146.207 663.015 140.167 658.947 134.493 655.066C128.81 651.194 122.939 648.732 118.88 643.022C114.821 637.312 111.582 632.396 108.228 626.018C104.864 619.648 102.768 612.644 99.8591 605.837C96.9418 599.039 96.2637 591.045 94.3724 583.667C92.481 576.289 92.0528 567.108 90.9822 559.4C89.9116 551.701 92.0974 539.55 87.4314 535.294C86.8515 572.47 93.8282 608.344 112.412 639.676ZM155.235 685.176C147.652 674.649 136.982 666.182 129.363 655.735C140.533 662.712 161.382 668.172 155.235 685.176ZM186.461 835.951C187.862 822.765 187.977 805.635 185.631 793.065C183.285 780.495 180.412 769.316 174.934 758.262C169.447 747.217 166.173 739.223 158.135 729.561C150.088 719.908 158.278 706.142 159.696 694.99C174.738 714.314 185.988 736.725 189.137 761.01C191.109 753.346 187.862 743.568 185.587 736.012C183.312 728.446 179.877 722.014 175.978 715.287C172.07 708.569 170.295 702.449 164.38 696.551C158.456 690.663 158.037 681.099 157.912 672.686C183.651 689.37 207.516 709.755 214.055 741.445C220.595 773.134 209.38 812.71 186.461 835.951Z" fill="#F6E2C6"/>
<path d="M211.441 536.186C207.23 534.375 203.902 540.861 208.167 543.029C212.423 545.197 215.304 537.846 211.441 536.186Z" fill="#F9E5C8"/>
<path d="M190.029 554.029C191.162 546.018 182.08 555.252 190.029 554.029Z" fill="#F7E1C5"/>
<path d="M135.608 554.922C130.781 552.709 126.668 559.846 131.441 562.657C136.215 565.467 140.069 556.965 135.608 554.922Z" fill="#FBE9C9"/>
<path d="M171.294 576.333C169.885 573.362 171.589 567.679 166.833 567.412C167.458 574.906 162.783 578.082 156.127 579.01C156.725 583.203 162.988 580.607 165.245 583.274C167.511 585.933 164.995 591.83 169.51 591.5C168.207 583.444 174.238 581.347 180.216 579.01C178.628 575.736 174.408 576.333 171.294 576.333Z" fill="#F9E7CA"/>
<path d="M197.167 591.5C193.553 590.215 191.082 595.845 194.776 597.442C198.469 599.039 200.423 592.66 197.167 591.5Z" fill="#F7E2C4"/>
<path d="M166.833 619.157C161.891 617.631 157.555 625.571 163.265 628.078C168.966 630.585 172.168 620.807 166.833 619.157Z" fill="#F8E4C7"/>
<path d="M197.167 633.431C197.568 625.83 189.574 634.689 197.167 633.431Z" fill="#F9E6CA"/>
<path d="M181.108 646.814C178.592 645.591 176.13 649.365 178.717 650.971C181.304 652.577 183.365 647.911 181.108 646.814Z" fill="#FCEED1"/>
<path d="M129.363 655.735C140.533 662.712 161.382 668.172 155.235 685.176C147.652 674.649 136.982 666.182 129.363 655.735Z" fill="#C99469"/>
<path d="M60.6667 658.412C58.1508 657.19 55.6884 660.963 58.2757 662.569C60.8629 664.175 62.9238 659.509 60.6667 658.412Z" fill="#F9E9CC"/>
<path d="M186.461 835.951C209.38 812.71 220.595 773.134 214.055 741.445C207.516 709.755 183.651 689.37 157.912 672.686C158.037 681.099 158.456 690.663 164.38 696.551C170.295 702.449 172.07 708.569 175.978 715.287C179.877 722.014 183.312 728.446 185.587 736.012C187.862 743.568 191.109 753.346 189.137 761.01C185.988 736.725 174.738 714.314 159.696 694.99C158.278 706.142 150.088 719.908 158.135 729.561C166.173 739.223 169.447 747.217 174.934 758.262C180.412 769.316 183.285 780.495 185.631 793.065C187.977 805.635 187.862 822.765 186.461 835.951Z" fill="#C99469"/>
<path d="M62.451 691.422C59.6942 690.975 59.1411 688.245 57.098 686.961C56.7679 689.905 53.0744 690.797 52.6373 693.206C54.7606 694.134 55.8401 696.676 57.9902 697.667C58.8645 695.258 62.4867 694.232 62.451 691.422Z" fill="#FAECD0"/>
<path d="M93.6765 697.667C90.0632 696.382 87.592 702.011 91.2855 703.608C94.979 705.205 96.9328 698.826 93.6765 697.667Z" fill="#F9E7CB"/>
<path d="M79.402 713.725C74.7717 713.297 77.4035 720.194 74.7092 722.415C72.0238 724.645 67.8396 722.834 66.0196 726.216C73.5673 726.697 75.7084 731.212 78.5098 736.922C78.7775 729.258 84.9155 727.598 90.1078 724.431C83.7735 722.754 78.3492 721.942 79.402 713.725Z" fill="#F9E7C9"/>
<path d="M150.775 728.892C130.148 771.466 158.269 814.905 165.049 856.471C166.343 834.961 156.252 816.547 149.882 795.804C143.512 775.07 145.564 749.92 150.775 728.892Z" fill="#F6E1C4"/>
<path d="M65.1275 752.088C62.4331 750.563 59.0162 754.229 61.8532 756.255C64.6814 758.271 67.7415 753.569 65.1275 752.088Z" fill="#F8E5CB"/>
<path d="M111.52 753.873C107.309 752.061 103.981 758.547 108.245 760.715C112.501 762.883 115.383 755.532 111.52 753.873Z" fill="#F9E7CB"/>
<path d="M89.2157 772.608C85.3883 771.832 82.3282 779.808 87.4224 780.628C92.5167 781.449 93.1769 773.42 89.2157 772.608Z" fill="#F6DFC1"/>
<path d="M127.578 795.804C122.823 793.627 117.595 800.559 122.921 804.03C128.239 807.5 132.414 798.025 127.578 795.804Z" fill="#FBEACC"/>
<path d="M116.873 853.794C110.627 836.897 94.0869 822.881 77.8228 816.118C61.5499 809.356 68.7942 828.225 66.9118 838.627C65.0293 849.03 70.9354 860.878 72.2647 870.745C62.5313 867.694 52.6908 865.312 41.9314 866.284C46.0353 897.545 78.8667 929.306 111.52 920.706C81.9892 921.973 52.1198 899.285 46.3922 869.853C64.3602 865.704 77.5463 878.337 84.0858 891.934C90.6253 905.539 104.07 912.882 115.98 917.137C105.747 889.097 112.715 855.48 137.392 836.843C152.514 862.154 150.498 897.715 129.363 918.922C163.22 920.59 193.134 889.204 194.49 856.471C178.315 858.701 161.115 865.125 151.667 879.667C150.596 871.289 149.829 857.461 147.001 849.539C144.173 841.616 140.301 829.429 133.154 836.174C126.008 842.919 122.823 847.736 116.873 853.794ZM109.735 906.431C102.928 898.42 99.422 889.266 89.8848 882.566C80.3566 875.857 73.7992 869.139 71.9703 856.765C70.1503 844.382 68.4552 829.376 70.4804 816.324C80.9275 820.758 92.3382 825.834 100.145 834.836C107.951 843.847 119.246 852.054 113.027 864.232C106.818 876.401 107.175 893.111 109.735 906.431ZM191.814 860.039C187.21 888.33 163.229 912.944 134.716 917.137C143.503 907.448 149.517 895.485 149.882 882.343C162.167 871.78 175.336 861.493 191.814 860.039ZM108.843 912.676C96.6295 905.521 87.2886 892.978 81.1863 880.559C93.3374 887.776 102.794 900.365 108.843 912.676Z" fill="#F8E5C8"/>
<path d="M109.735 906.431C107.175 893.111 106.818 876.401 113.027 864.232C119.246 852.054 107.951 843.847 100.145 834.836C92.3382 825.834 80.9275 820.758 70.4804 816.324C68.4552 829.376 70.1503 844.382 71.9703 856.765C73.7992 869.139 80.3566 875.857 89.8848 882.566C99.422 889.266 102.928 898.42 109.735 906.431Z" fill="#C99469"/>
<path d="M191.814 860.039C175.336 861.493 162.167 871.78 149.882 882.343C149.517 895.485 143.503 907.448 134.716 917.137C163.229 912.944 187.21 888.33 191.814 860.039Z" fill="#C99469"/>
<path d="M123.118 917.137C134.564 902.096 131.977 877.427 121.333 862.716C128.792 879.685 131.094 899.794 123.118 917.137Z" fill="#F4DEC3"/>
<path d="M216.794 879.667C214.938 878.837 213.226 881.968 215.277 882.914C217.338 883.869 218.445 880.398 216.794 879.667Z" fill="#FAEAD0"/>
<path d="M81.1863 880.559C93.3374 887.776 102.794 900.365 108.843 912.676C96.6295 905.521 87.2886 892.978 81.1863 880.559Z" fill="#CF926E"/>
<path d="M204.304 897.51C201.458 895.717 196.819 900.409 200.539 903.059C204.259 905.709 207.462 899.508 204.304 897.51Z" fill="#FAE6C9"/>
<path d="M115.98 1055.42C115.516 1031.32 122.475 1003.87 134.029 983.362C145.582 962.851 159.232 945.829 161.48 923.382C146.251 967.357 106.773 1004.58 115.98 1055.42Z" fill="#F6E2C5"/>
<path d="M179.324 925.167C179.814 932.366 172.088 924.73 179.324 925.167Z" fill="#F9E3C7"/>
<path d="M200.735 928.735C198.567 932.973 195.159 936.426 190.922 938.549C198.63 937.362 196.828 944.732 200.735 947.471C201.387 945.142 201.94 942.894 201.627 940.333C204.188 939.013 207.168 939.2 209.657 937.657C205.482 935.141 200.048 935.917 200.735 928.735Z" fill="#F6E2C5"/>
<path d="M115.088 929.627C101.376 948.158 91.7405 969.355 89.1532 993.8C86.566 1018.24 77.9567 1047.31 80.2941 1072.37C82.0427 1059.26 81.9714 1045.19 86.5392 1033.12C89.2068 1047.59 90.9822 1064.19 99.0294 1076.83C94.7917 1059.54 85.6381 1035.63 91.0625 1018.01C96.4868 1000.4 106.613 987.047 115.16 971.63C123.698 956.205 133.931 944.473 142.745 929.627C120.798 952.529 103.883 981.703 91 1010.81C90.1971 982.568 103.365 955.054 115.088 929.627Z" fill="#F7E3C7"/>
<path d="M64.2353 941.226C70.4982 946.213 76.3954 935.899 68.6961 934.088C68.1965 937.041 64.4673 938.264 64.2353 941.226Z" fill="#F9E8CC"/>
<path d="M96.353 934.98C82.0249 951.94 76.4311 971.586 70.2841 993.667C64.1372 1015.74 59.5515 1044.69 62.451 1068.8C63.6197 1021.88 73.3085 975.565 96.353 934.98Z" fill="#F4DCC0"/>
<path d="M181.108 961.745C174.89 959.702 172.177 969.186 177.834 971.264C183.481 973.334 186.149 963.396 181.108 961.745Z" fill="#F9E6C8"/>
<path d="M214.118 974.235C211.111 972.433 207.703 977.206 210.843 979.294C213.984 981.381 216.901 975.904 214.118 974.235Z" fill="#F9E5C7"/>
<path d="M180.216 994.755C177.209 992.953 173.801 997.726 176.941 999.813C180.082 1001.9 182.999 996.423 180.216 994.755Z" fill="#F2D7B9"/>
<path d="M151.667 1008.14C148.018 1005.76 143.004 1011.62 147.01 1014.58C151.006 1017.54 154.985 1010.31 151.667 1008.14Z" fill="#FBEDD1"/>
</svg>
