<svg width="292" height="1092" viewBox="0 0 292 1092" fill="none" xmlns="http://www.w3.org/2000/svg">
<path d="M292 1092H0V0H292V1092ZM159.078 21.4028C155.625 22.7857 154.26 16.9777 157.284 16.0588C160.648 15.0328 162.53 20.02 159.078 21.4028ZM219.735 22.3039C220.065 37.649 219.842 55.9828 217.951 70.4804C216.069 84.9779 209.636 96.6474 208.137 109.735C211.884 103.802 213.249 97.7269 215.257 90.9822C217.255 84.2285 218.816 76.7969 219.735 69.5882C220.645 62.3707 223.17 54.0112 222.412 46.3922C221.653 38.7731 225.097 27.0324 219.735 22.3039ZM122.223 37.1494C120.162 38.104 119.055 34.6335 120.706 33.902C122.57 33.0723 124.275 36.2037 122.223 37.1494ZM242.039 43.7157C239.916 60.0243 237.311 79.3306 233.314 94.7649C229.326 110.208 225.035 125.589 218.013 139.239C211.001 152.898 203.123 162.872 193.194 174.194C183.264 185.506 173.102 192.866 162.414 203.189C151.726 213.511 142.822 222.727 134.713 235.262C126.594 247.788 119.359 260.608 115.549 275.873C111.74 291.138 113.096 309.873 103.487 323.585C93.8698 337.289 92.4067 355.007 92.1569 372.029C91.9071 389.052 94.3605 408.652 99.2941 424.667C99.1692 407.029 93.4683 385.483 94.8333 366.676C96.1983 347.87 100.115 332.721 110.892 317.608C112.81 325.245 113.899 333.854 116.245 341.696C117.066 333.363 109.491 318.438 116.468 310.694C123.445 302.95 129.306 298.391 137.728 293.591C146.15 288.791 154.376 284.027 163.529 281.029C131.349 325.405 106.075 377.811 110.892 434.48C114.978 430.394 111.517 420.152 112.676 413.961C113.836 407.769 113.212 399.597 114.755 393.736C116.299 387.874 117.11 380.889 118.904 375.58C120.688 370.272 121.393 362.189 126.059 362.216C126.353 347.7 135.667 331.204 142.938 318.429C150.209 305.653 157.445 291.352 167.767 280.806C178.098 270.27 194.585 267.031 205.238 255.826C215.89 244.629 227.426 236.261 234.233 222.37C241.049 208.488 251.889 193.286 250.069 177.539C241.754 216.161 214.48 254.622 176.912 270.324C188.635 254.854 200.741 242.122 210.189 225.091C219.646 208.069 229.335 190.877 235.589 171.981C241.852 153.085 251.059 130.389 250.961 110.627C247.169 127.578 241.54 146.305 235.865 162.444C230.182 178.574 223.804 194.57 215.89 209.389C207.986 224.199 200.09 237.18 189.607 250.009C179.124 262.838 170.069 276.283 154.412 281.725C138.745 287.159 126.032 297.847 113.569 308.686C113.586 255.701 146.614 218.784 186.056 184.9C225.499 151.015 239.666 94.2742 242.931 44.6078C243.137 42.4577 245.331 37.7472 242.931 35.6863C243.297 38.5233 241.424 40.7894 242.039 43.7157ZM167.99 50.8529C169.587 53.0744 172.763 53.9933 173.343 57.098C175.698 55.7241 175.27 52.0841 178.696 51.7451C176.582 49.8894 174.806 47.8285 173.343 45.5C172.317 47.659 170.774 50.1927 167.99 50.8529ZM143.019 51.7362C139.289 53.1369 136.881 46.7312 140.333 45.5C143.893 44.2331 146.748 50.3355 143.019 51.7362ZM161.745 98.1373C166.946 94.7738 170.729 88.5109 176.912 87.4314C181.524 96.3886 182.22 104.873 183.157 115.088C184.094 125.303 174.815 128.56 167.99 134.716C169.266 125.187 167.562 108.094 162.361 101.09C157.168 94.0779 151.699 80.1781 143.277 85.0226C134.864 89.8759 130.314 100.43 126.059 107.951C118.547 102 109.955 97.4325 100.186 97.2451C97.8934 106.898 97.8667 117.631 99.2941 127.578C90.2031 124.786 82.1201 125.928 72.8238 127.873C63.5275 129.818 71.0395 138.793 75.4735 144.262C79.9165 149.722 85.4389 154.316 91.4877 158.581C97.5366 162.854 105.816 165.531 113.578 166.824C121.339 168.127 133.392 170.179 141.225 167.725C114.122 168.796 82.8874 158.108 71.6373 131.147C78.2214 130.897 95.5292 125.5 100.846 131.379C106.164 137.249 106.048 147.027 113.346 151.89C120.643 156.752 125.069 163.907 134.088 165.049C123.008 156.368 109.268 147.099 104.647 132.931C111.49 134.564 117.253 140.506 123.115 143.905C128.976 147.304 129.636 160.374 135.873 157.912C137.371 161.855 140.396 165.317 143.902 167.725C138.014 153.219 123.855 143.95 125.167 126.686C126.478 109.423 132.964 98.3068 145.686 86.5392C158.15 95.9604 164.823 108.95 166.206 124.902C167.589 140.854 152.163 152.345 148.363 166.833C161.727 156.226 165.171 135.331 182.265 127.578C179.909 141.148 169.088 151.114 160.853 161.48C168.133 153.362 179.695 149.41 182.06 137.187C184.424 124.964 195.683 117.078 209.922 119.549C204.631 145.645 179.24 161.828 154.608 165.941C181.551 167.529 210.466 143.798 213.49 115.98C203.525 114.999 194.746 118.514 185.833 121.333C187.359 107.398 183.755 94.8095 177.804 82.9706C171.131 85.4597 163.645 90.8394 161.745 98.1373ZM145.392 193.304C142.002 195.454 139.209 189.146 142.118 187.353C145.392 185.337 148.782 191.145 145.392 193.304ZM81.1655 193.295C78.5783 194.901 76.5174 190.235 78.7745 189.137C81.2904 187.915 83.7528 191.689 81.1655 193.295ZM107.324 199.843C109.206 208.506 100.597 207.542 97.5098 211.441C100.16 213.011 106.075 211.459 105.825 216.509C105.575 221.558 110.259 223.717 110 217.686C109.741 211.646 115.531 213.788 118.922 212.333C118.342 208.542 114.452 209.933 111.588 208.069C108.715 206.213 111.82 199.941 107.324 199.843ZM81.1566 235.235C76.6244 237.742 73.7517 230.168 77.8824 228.392C81.8257 226.697 85.6887 232.728 81.1566 235.235ZM102.167 254.461C99.6332 256.923 96.4571 252.641 98.402 250.696C99.874 249.224 104.701 251.999 102.167 254.461ZM230.147 272.706C225.258 275.391 221.35 266.202 225.98 264.078C231.217 261.679 235.045 270.02 230.147 272.706ZM189.402 298.873C191.597 300.371 194.068 301.415 194.755 304.225C198.02 304.761 198.547 300.05 201.892 299.765C201.491 296.419 197.164 295.09 196.539 291.735C194.389 294.546 192.114 296.633 189.402 298.873ZM172.647 330.294C168.401 333.506 164.323 326.297 167.99 323.853C171.389 321.587 176.894 327.091 172.647 330.294ZM159.675 347.638C157.088 349.244 155.027 344.578 157.284 343.48C159.8 342.258 162.263 346.032 159.675 347.638ZM165.911 373.519C162.771 375.607 159.854 370.129 162.637 368.461C165.644 366.659 169.052 371.432 165.911 373.519ZM139.441 404.147C137.809 393.04 134.061 381.549 129.627 371.137C136.113 379.274 141.975 393.102 139.441 404.147ZM199.216 395.225C195.763 398.41 192.792 397.625 189.402 395.225C190.151 388.936 198.466 388.918 199.216 395.225ZM170.693 397.875C167.589 398.91 166.108 393.325 168.882 392.549C172.567 391.523 173.789 396.849 170.693 397.875ZM152.824 409.5C140.137 422.401 131.296 437.897 126.951 455C117.771 447.604 107.457 442.198 96.6176 438.049C94.2267 446.275 94.1375 455.125 93.9412 463.922C83.4673 462.467 72.797 461.647 61.8235 462.137C65.2672 500.081 102.113 534.304 141.225 528.157C133.865 526.025 121.616 525.614 113.363 522.117C105.111 518.62 97.8042 515.577 91.0417 509.645C84.288 503.712 79.6667 499.233 75.4289 491.355C71.1822 483.487 67.7028 474.583 66.2843 465.706C76.0177 465.759 85.9653 464.956 94.8333 468.382C95.0028 477.099 99.1246 488.277 103.55 495.352C107.975 502.427 113.372 509.555 120.037 514.551C126.692 519.548 136.497 527.104 143.01 523.696C120.652 514.757 101.15 493.639 98.402 469.275C110.357 472.433 125.354 478.847 127.834 491.587C130.314 504.327 137.38 516.104 147.471 523.696C141.172 512.58 132.705 501.91 130.52 488.902C138.032 494.853 142.394 503.542 145.686 512.098C145.294 504.524 142.466 496.494 135.65 490.017C128.825 483.549 127.183 472.147 128.735 462.137C138.603 467.472 141.921 479.847 148.363 488.01C150.745 472.79 127.959 464.716 131.706 450.834C135.444 436.952 143.706 425.853 152.824 414.853C164.439 422.847 171.951 436.541 176.02 449.647C156.401 466.946 144.232 494.335 150.147 520.127C152.012 496.485 156.776 468.944 177.804 454.108C182.113 465.991 179.82 477.759 170.444 485.11C161.067 492.471 158.721 502.266 154.608 512.098C161.326 502.034 167.196 490.303 177.804 482.657C176.421 499.001 165.751 512.285 155.5 524.588C164.966 524.579 173.655 520.217 181.105 514.507C188.545 508.788 192.685 502.561 198.252 495.076C203.81 487.59 205.889 477.928 208.432 468.677C210.965 459.425 230.084 462.887 238.471 462.137C235.366 501.009 197.119 530.236 159.069 527.265C200.545 537.632 240.978 498.769 242.931 458.569C231.217 458.167 219.86 459.006 209.029 462.137C209.493 451.298 208.878 440.761 205.461 430.912C195.656 434.061 187.377 441.002 178.696 446.078C173.53 432.42 165.019 418.19 152.824 409.5ZM179.588 639.676C198.172 608.344 205.149 572.47 204.569 535.294C199.903 539.55 202.088 551.701 201.018 559.4C199.947 567.108 199.519 576.289 197.628 583.667C195.736 591.045 195.058 599.039 192.141 605.837C189.232 612.644 187.136 619.648 183.772 626.018C180.418 632.396 177.179 637.312 173.12 643.022C169.061 648.732 163.19 651.194 157.507 655.066C151.833 658.947 145.793 663.015 139.441 665.549C148.907 623.1 181.854 586.415 185.833 543.323C175.689 587.289 145.196 624.768 135.873 669.118C115.192 680.698 101.159 692.626 87.0091 713.039C72.8595 733.451 72.1547 766.184 78.1767 790.157C84.1899 814.138 100.811 830.089 110 852.01C111.427 850.448 109.143 847.281 110 844.873C112.097 845.631 112.882 848.655 115.353 848.441C101.007 833.712 106.628 806.545 109.804 788.47C112.98 770.395 122.49 753.168 131.635 738.037C140.788 722.915 151.637 710.897 164.645 698.782C177.652 686.666 190.205 677.325 202.561 664.434C214.918 651.542 224.999 638.695 233.341 622.948C241.682 607.211 250.425 586.12 249.176 568.304C243.244 634.85 183.335 674.792 140.333 720.863C134.472 708.515 133.642 690.289 144.125 680.939C154.608 671.58 159.818 661.864 169.105 652.39C178.393 642.924 188.153 637.303 197.654 627.409C207.156 617.515 214.668 609.522 221.314 597.54C227.961 585.567 233.207 573.782 237.561 560.257C241.905 546.723 245.108 528.032 242.039 512.99C242.539 561.782 219.539 609.923 179.588 639.676ZM83.8331 543.029C79.5775 545.197 76.6958 537.846 80.5588 536.186C84.7698 534.375 88.0976 540.861 83.8331 543.029ZM101.971 554.029C100.838 546.018 109.92 555.252 101.971 554.029ZM160.559 562.657C155.785 565.467 151.931 556.965 156.392 554.922C161.219 552.709 165.332 559.846 160.559 562.657ZM120.706 576.333C117.592 576.333 113.372 575.736 111.784 579.01C117.762 581.347 123.793 583.444 122.49 591.5C127.005 591.83 124.489 585.933 126.755 583.274C129.012 580.607 135.275 583.203 135.873 579.01C129.217 578.082 124.542 574.906 125.167 567.412C120.411 567.679 122.115 573.362 120.706 576.333ZM97.2243 597.442C93.5308 599.039 91.5769 592.66 94.8333 591.5C98.4465 590.215 100.918 595.845 97.2243 597.442ZM128.735 628.078C123.034 630.585 119.832 620.807 125.167 619.157C130.109 617.631 134.445 625.571 128.735 628.078ZM94.8334 633.431C94.4319 625.83 102.426 634.689 94.8334 633.431ZM113.283 650.971C110.696 652.577 108.635 647.911 110.892 646.814C113.408 645.591 115.87 649.365 113.283 650.971ZM233.724 662.569C231.137 664.175 229.076 659.509 231.333 658.412C233.849 657.19 236.312 660.963 233.724 662.569ZM229.549 691.422C229.513 694.232 233.135 695.258 234.01 697.667C236.16 696.676 237.239 694.134 239.363 693.206C238.926 690.797 235.232 689.905 234.902 686.961C232.859 688.245 232.306 690.975 229.549 691.422ZM200.715 703.608C197.021 705.205 195.067 698.826 198.324 697.667C201.937 696.382 204.408 702.011 200.715 703.608ZM212.598 713.725C213.651 721.942 208.226 722.754 201.892 724.431C207.085 727.598 213.223 729.258 213.49 736.922C216.292 731.212 218.433 726.697 225.98 726.216C224.16 722.834 219.976 724.645 217.291 722.415C214.596 720.194 217.228 713.297 212.598 713.725ZM141.225 728.892C146.436 749.92 148.488 775.07 142.118 795.804C135.748 816.547 125.657 834.961 126.951 856.471C133.731 814.905 161.852 771.466 141.225 728.892ZM230.147 756.255C227.319 758.271 224.259 753.569 226.873 752.088C229.567 750.563 232.984 754.229 230.147 756.255ZM183.755 760.715C179.499 762.883 176.617 755.532 180.48 753.873C184.691 752.061 188.019 758.547 183.755 760.715ZM204.578 780.628C199.483 781.449 198.823 773.42 202.784 772.608C206.612 771.832 209.672 779.808 204.578 780.628ZM169.079 804.03C163.761 807.5 159.586 798.025 164.422 795.804C169.177 793.627 174.405 800.559 169.079 804.03ZM175.127 853.794C169.177 847.736 165.992 842.919 158.846 836.174C151.699 829.429 147.827 841.616 144.999 849.539C142.171 857.461 141.404 871.289 140.333 879.667C130.885 865.125 113.685 858.701 97.5098 856.471C98.8659 889.204 128.78 920.59 162.637 918.922C141.502 897.715 139.486 862.154 154.608 836.843C179.285 855.48 186.253 889.097 176.02 917.137C187.93 912.882 201.375 905.539 207.914 891.934C214.454 878.337 227.64 865.704 245.608 869.853C239.88 899.285 210.011 921.973 180.48 920.706C213.133 929.306 245.965 897.545 250.069 866.284C239.309 865.312 229.469 867.694 219.735 870.745C221.065 860.878 226.971 849.03 225.088 838.627C223.206 828.225 230.45 809.356 214.177 816.118C197.913 822.881 181.373 836.897 175.127 853.794ZM170.667 862.716C163.208 879.685 160.906 899.794 168.882 917.137C157.436 902.096 160.023 877.427 170.667 862.716ZM76.7225 882.914C74.6616 883.869 73.5554 880.398 75.2059 879.667C77.0615 878.837 78.7745 881.968 76.7225 882.914ZM91.461 903.059C87.7407 905.709 84.5378 899.508 87.6961 897.51C90.5421 895.717 95.1813 900.409 91.461 903.059ZM176.02 1055.42C185.227 1004.58 145.749 967.357 130.52 923.382C132.768 945.829 146.418 962.851 157.971 983.362C169.525 1003.87 176.484 1031.32 176.02 1055.42ZM112.676 925.167C112.186 932.366 119.912 924.73 112.676 925.167ZM91.2647 928.735C91.9517 935.917 86.5184 935.141 82.3431 937.657C84.8323 939.2 87.8121 939.013 90.3725 940.333C90.0603 942.894 90.6134 945.142 91.2647 947.471C95.1724 944.732 93.3702 937.362 101.078 938.549C96.8407 936.426 93.4327 932.973 91.2647 928.735ZM176.912 929.627C188.635 955.054 201.803 982.568 201 1010.81C188.117 981.703 171.202 952.529 149.255 929.627C158.069 944.473 168.302 956.205 176.84 971.63C185.387 987.047 195.513 1000.4 200.938 1018.01C206.362 1035.63 197.208 1059.54 192.971 1076.83C201.018 1064.19 202.793 1047.59 205.461 1033.12C210.029 1045.19 209.957 1059.26 211.706 1072.37C214.043 1047.31 205.434 1018.24 202.847 993.8C200.26 969.355 190.624 948.158 176.912 929.627ZM223.304 934.088C223.804 937.041 227.533 938.264 227.765 941.226C221.502 946.213 215.605 935.899 223.304 934.088ZM195.647 934.98C218.691 975.565 228.38 1021.88 229.549 1068.8C232.449 1044.69 227.863 1015.74 221.716 993.667C215.569 971.586 209.975 951.94 195.647 934.98ZM114.166 971.264C108.519 973.334 105.851 963.396 110.892 961.745C117.11 959.702 119.823 969.186 114.166 971.264ZM81.1566 979.294C78.0162 981.381 75.0988 975.904 77.8824 974.235C80.8889 972.433 84.297 977.206 81.1566 979.294ZM115.059 999.813C111.918 1001.9 109.001 996.423 111.784 994.755C114.791 992.953 118.199 997.726 115.059 999.813ZM144.99 1014.58C140.994 1017.54 137.015 1010.31 140.333 1008.14C143.982 1005.76 148.996 1011.62 144.99 1014.58Z" fill="#C99469"/>
<path d="M157.284 16.0588C160.648 15.0328 162.53 20.02 159.078 21.4028C155.625 22.7857 154.26 16.9777 157.284 16.0588Z" fill="#FBE9CC"/>
<path d="M219.735 22.3039C225.097 27.0324 221.653 38.7731 222.412 46.3922C223.17 54.0112 220.645 62.3707 219.735 69.5882C218.816 76.7969 217.255 84.2285 215.257 90.9822C213.249 97.7269 211.884 103.802 208.137 109.735C209.636 96.6474 216.069 84.9779 217.951 70.4804C219.842 55.9828 220.065 37.649 219.735 22.3039Z" fill="#F2D9BD"/>
<path d="M120.706 33.902C122.57 33.0723 124.275 36.2037 122.223 37.1494C120.162 38.104 119.055 34.6335 120.706 33.902Z" fill="#FAE6CA"/>
<path d="M242.931 44.6078C242.887 44.2956 242.093 43.9298 242.039 43.7157C241.424 40.7894 243.297 38.5233 242.931 35.6863C245.331 37.7472 243.137 42.4577 242.931 44.6078Z" fill="#E6BB9C"/>
<path d="M242.931 44.6078C239.666 94.2742 225.499 151.015 186.056 184.9C146.614 218.784 113.586 255.701 113.569 308.686C126.032 297.847 138.745 287.159 154.412 281.725C170.069 276.283 179.124 262.838 189.607 250.009C200.09 237.18 207.986 224.199 215.89 209.389C223.804 194.57 230.182 178.574 235.865 162.444C241.54 146.305 247.169 127.578 250.961 110.627C251.059 130.389 241.852 153.085 235.589 171.981C229.335 190.877 219.646 208.069 210.189 225.091C200.741 242.122 188.635 254.854 176.912 270.324C214.48 254.622 241.754 216.161 250.069 177.539C251.889 193.286 241.049 208.488 234.233 222.37C227.426 236.261 215.89 244.629 205.238 255.826C194.585 267.031 178.098 270.27 167.767 280.806C157.445 291.352 150.209 305.653 142.938 318.429C135.667 331.204 126.353 347.7 126.059 362.216C121.393 362.189 120.688 370.272 118.904 375.58C117.11 380.889 116.299 387.874 114.755 393.736C113.212 399.597 113.836 407.769 112.676 413.961C111.517 420.152 114.978 430.394 110.892 434.48C106.075 377.811 131.349 325.405 163.529 281.029C154.376 284.027 146.15 288.791 137.728 293.591C129.306 298.391 123.445 302.95 116.468 310.694C109.491 318.438 117.066 333.363 116.245 341.696C113.899 333.854 112.81 325.245 110.892 317.608C100.115 332.721 96.1983 347.87 94.8333 366.676C93.4683 385.483 99.1692 407.029 99.2941 424.667C94.3605 408.652 91.9071 389.052 92.1569 372.029C92.4067 355.007 93.8698 337.289 103.487 323.585C113.096 309.873 111.74 291.138 115.549 275.873C119.359 260.608 126.594 247.788 134.713 235.262C142.822 222.727 151.726 213.511 162.414 203.189C173.102 192.866 183.264 185.506 193.194 174.194C203.123 162.872 211.001 152.898 218.013 139.239C225.035 125.589 229.326 110.208 233.314 94.7649C237.311 79.3306 239.916 60.0243 242.039 43.7157C242.093 43.9298 242.887 44.2956 242.931 44.6078Z" fill="#F6E3C6"/>
<path d="M167.99 50.8529C170.774 50.1927 172.317 47.659 173.343 45.5C174.806 47.8285 176.582 49.8894 178.696 51.7451C175.27 52.0841 175.698 55.7241 173.343 57.098C172.763 53.9933 169.587 53.0744 167.99 50.8529Z" fill="#F8E5CA"/>
<path d="M140.333 45.5C143.893 44.2331 146.748 50.3355 143.019 51.7362C139.289 53.1369 136.881 46.7312 140.333 45.5Z" fill="#F7E2C5"/>
<path d="M161.745 98.1373C163.645 90.8394 171.131 85.4597 177.804 82.9706C183.755 94.8095 187.359 107.398 185.833 121.333C194.746 118.514 203.525 114.999 213.49 115.98C210.466 143.798 181.551 167.529 154.608 165.941C179.24 161.828 204.631 145.645 209.922 119.549C195.683 117.078 184.424 124.964 182.06 137.187C179.695 149.41 168.133 153.362 160.853 161.48C169.088 151.114 179.909 141.148 182.265 127.578C165.171 135.331 161.727 156.226 148.363 166.833C152.163 152.345 167.589 140.854 166.206 124.902C164.823 108.95 158.15 95.9604 145.686 86.5392C132.964 98.3068 126.478 109.423 125.167 126.686C123.855 143.95 138.014 153.219 143.902 167.725C140.396 165.317 137.371 161.855 135.873 157.912C129.636 160.374 128.976 147.304 123.115 143.905C117.253 140.506 111.49 134.564 104.647 132.931C109.268 147.099 123.008 156.368 134.088 165.049C125.069 163.907 120.643 156.752 113.346 151.89C106.048 147.027 106.164 137.249 100.846 131.379C95.5292 125.5 78.2214 130.897 71.6373 131.147C82.8874 158.108 114.122 168.796 141.225 167.725C133.392 170.179 121.339 168.127 113.578 166.824C105.816 165.531 97.5366 162.854 91.4877 158.581C85.4389 154.316 79.9165 149.722 75.4735 144.262C71.0395 138.793 63.5275 129.818 72.8238 127.873C82.1201 125.928 90.2031 124.786 99.2941 127.578C97.8667 117.631 97.8934 106.898 100.186 97.2451C109.955 97.4325 118.547 102 126.059 107.951C130.314 100.43 134.864 89.8759 143.277 85.0226C151.699 80.1781 157.168 94.0779 162.361 101.09C167.562 108.094 169.266 125.187 167.99 134.716C174.815 128.56 184.094 125.303 183.157 115.088C182.22 104.873 181.524 96.3886 176.912 87.4314C170.729 88.5109 166.946 94.7738 161.745 98.1373ZM102.863 99.9216C102.488 106.782 97.8221 122.288 103.139 128.194C108.448 134.109 118.315 133.609 123.382 140.069C119.377 131.308 125.416 118.791 124.266 110.619C123.115 102.455 107.448 103 102.863 99.9216Z" fill="#F7E4C7"/>
<path d="M102.863 99.9216C107.448 103 123.115 102.455 124.266 110.619C125.416 118.791 119.377 131.308 123.382 140.069C118.315 133.609 108.448 134.109 103.139 128.194C97.8221 122.288 102.488 106.782 102.863 99.9216Z" fill="#C99469"/>
<path d="M142.118 187.353C145.392 185.337 148.782 191.145 145.392 193.304C142.002 195.454 139.209 189.146 142.118 187.353Z" fill="#FAE8CA"/>
<path d="M78.7745 189.137C81.2904 187.915 83.7528 191.689 81.1655 193.295C78.5783 194.901 76.5174 190.235 78.7745 189.137Z" fill="#FBE9CE"/>
<path d="M107.324 199.843C111.82 199.941 108.715 206.213 111.588 208.069C114.452 209.933 118.342 208.542 118.922 212.333C115.531 213.788 109.741 211.646 110 217.686C110.259 223.717 105.575 221.558 105.825 216.509C106.075 211.459 100.16 213.011 97.5098 211.441C100.597 207.542 109.206 208.506 107.324 199.843Z" fill="#F9E7CA"/>
<path d="M77.8824 228.392C81.8257 226.697 85.6887 232.728 81.1566 235.235C76.6244 237.742 73.7517 230.168 77.8824 228.392Z" fill="#FBEBCD"/>
<path d="M98.402 250.696C99.874 249.224 104.701 251.999 102.167 254.461C99.6332 256.923 96.4571 252.641 98.402 250.696Z" fill="#FBEBCE"/>
<path d="M225.98 264.078C231.217 261.679 235.045 270.02 230.147 272.706C225.258 275.391 221.35 266.202 225.98 264.078Z" fill="#FBEBCF"/>
<path d="M189.402 298.873C192.114 296.633 194.389 294.546 196.539 291.735C197.164 295.09 201.491 296.419 201.892 299.765C198.547 300.05 198.02 304.761 194.755 304.225C194.068 301.415 191.597 300.371 189.402 298.873Z" fill="#FAEACD"/>
<path d="M167.99 323.853C171.389 321.587 176.894 327.091 172.647 330.294C168.401 333.506 164.323 326.297 167.99 323.853Z" fill="#F9E6C9"/>
<path d="M157.284 343.48C159.8 342.258 162.263 346.032 159.675 347.638C157.088 349.244 155.027 344.578 157.284 343.48Z" fill="#F1D4B7"/>
<path d="M162.637 368.461C165.644 366.659 169.052 371.432 165.911 373.519C162.771 375.607 159.854 370.129 162.637 368.461Z" fill="#F8E6C9"/>
<path d="M129.627 371.137C136.113 379.274 141.975 393.102 139.441 404.147C137.809 393.04 134.061 381.549 129.627 371.137Z" fill="#F3DCC2"/>
<path d="M189.402 395.225C190.151 388.936 198.466 388.918 199.216 395.225C195.763 398.41 192.792 397.625 189.402 395.225Z" fill="#FAE8CE"/>
<path d="M168.882 392.549C172.567 391.523 173.789 396.849 170.693 397.875C167.589 398.91 166.108 393.325 168.882 392.549Z" fill="#F9E4C6"/>
<path d="M152.824 409.5C165.019 418.19 173.53 432.42 178.696 446.078C187.377 441.002 195.656 434.061 205.461 430.912C208.878 440.761 209.493 451.298 209.029 462.137C219.86 459.006 231.217 458.167 242.931 458.569C240.978 498.769 200.545 537.632 159.069 527.265C197.119 530.236 235.366 501.009 238.471 462.137C230.084 462.887 210.965 459.425 208.432 468.677C205.889 477.928 203.81 487.59 198.252 495.076C192.685 502.561 188.545 508.788 181.105 514.507C173.655 520.217 164.966 524.579 155.5 524.588C165.751 512.285 176.421 499.001 177.804 482.657C167.196 490.303 161.326 502.034 154.608 512.098C158.721 502.266 161.067 492.471 170.444 485.11C179.82 477.759 182.113 465.991 177.804 454.108C156.776 468.944 152.012 496.485 150.147 520.127C144.232 494.335 156.401 466.946 176.02 449.647C171.951 436.541 164.439 422.847 152.824 414.853C143.706 425.853 135.444 436.952 131.706 450.834C127.959 464.716 150.745 472.79 148.363 488.01C141.921 479.847 138.603 467.472 128.735 462.137C127.183 472.147 128.825 483.549 135.65 490.017C142.466 496.494 145.294 504.524 145.686 512.098C142.394 503.542 138.032 494.853 130.52 488.902C132.705 501.91 141.172 512.58 147.471 523.696C137.38 516.104 130.314 504.327 127.834 491.587C125.354 478.847 110.357 472.433 98.402 469.275C101.15 493.639 120.652 514.757 143.01 523.696C136.497 527.104 126.692 519.548 120.037 514.551C113.372 509.555 107.975 502.427 103.55 495.352C99.1246 488.277 95.0028 477.099 94.8333 468.382C85.9653 464.956 76.0177 465.759 66.2843 465.706C67.7028 474.583 71.1822 483.487 75.4289 491.355C79.6667 499.233 84.288 503.712 91.0417 509.645C97.8042 515.577 105.111 518.62 113.363 522.117C121.616 525.614 133.865 526.025 141.225 528.157C102.113 534.304 65.2672 500.081 61.8235 462.137C72.797 461.647 83.4673 462.467 93.9412 463.922C94.1375 455.125 94.2267 446.275 96.6176 438.049C107.457 442.198 117.771 447.604 126.951 455C131.296 437.897 140.137 422.401 152.824 409.5ZM182.265 474.627C188.59 469.328 196.165 468.641 202.856 463.993C209.538 459.336 203.543 443.554 203.676 436.265C196.004 438.825 190.294 442.046 183.826 447.64C177.358 453.242 184.825 466.339 182.265 474.627ZM99.2941 443.402C96.9299 452.288 94.6638 466.304 104.843 468.186C115.023 470.069 117.69 476.626 126.059 480.873C125.648 472.335 128.86 458.783 120.483 454.331C112.114 449.87 108.332 445.525 99.2941 443.402ZM162.637 520.127C185.066 512.285 202.401 490.097 204.569 466.598C192.988 469.837 180.81 476.296 179.597 488.911C178.375 501.517 169.382 510.296 162.637 520.127Z" fill="#F8E6C9"/>
<path d="M182.265 474.627C184.825 466.339 177.358 453.242 183.826 447.64C190.294 442.046 196.004 438.825 203.676 436.265C203.543 443.554 209.538 459.336 202.856 463.993C196.165 468.641 188.59 469.328 182.265 474.627Z" fill="#C99469"/>
<path d="M99.2941 443.402C108.332 445.525 112.114 449.87 120.483 454.331C128.86 458.783 125.648 472.335 126.059 480.873C117.69 476.626 115.023 470.069 104.843 468.186C94.6638 466.304 96.9299 452.288 99.2941 443.402Z" fill="#C99469"/>
<path d="M162.637 520.127C169.382 510.296 178.375 501.517 179.597 488.911C180.81 476.296 192.988 469.837 204.569 466.598C202.401 490.097 185.066 512.285 162.637 520.127Z" fill="#C99469"/>
<path d="M179.588 639.676C219.539 609.923 242.539 561.782 242.039 512.99C245.108 528.032 241.905 546.723 237.561 560.257C233.207 573.782 227.961 585.567 221.314 597.54C214.668 609.522 207.156 617.515 197.654 627.409C188.153 637.303 178.393 642.924 169.105 652.39C159.818 661.864 154.608 671.58 144.125 680.939C133.642 690.289 134.472 708.515 140.333 720.863C183.335 674.792 243.244 634.85 249.176 568.304C250.425 586.12 241.682 607.211 233.341 622.948C224.999 638.695 214.918 651.542 202.561 664.434C190.205 677.325 177.652 686.666 164.645 698.782C151.637 710.897 140.788 722.915 131.635 738.037C122.49 753.168 112.98 770.395 109.804 788.47C106.628 806.545 101.007 833.712 115.353 848.441C112.882 848.655 112.097 845.631 110 844.873C109.143 847.281 111.427 850.448 110 852.01C100.811 830.089 84.1899 814.138 78.1767 790.157C72.1547 766.184 72.8595 733.451 87.0091 713.039C101.159 692.626 115.192 680.698 135.873 669.118C145.196 624.768 175.689 587.289 185.833 543.323C181.854 586.415 148.907 623.1 139.441 665.549C145.793 663.015 151.833 658.947 157.507 655.066C163.19 651.194 169.061 648.732 173.12 643.022C177.179 637.312 180.418 632.396 183.772 626.018C187.136 619.648 189.232 612.644 192.141 605.837C195.058 599.039 195.736 591.045 197.628 583.667C199.519 576.289 199.947 567.108 201.018 559.4C202.088 551.701 199.903 539.55 204.569 535.294C205.149 572.47 198.172 608.344 179.588 639.676ZM136.765 685.176C144.348 674.649 155.018 666.182 162.637 655.735C151.467 662.712 130.618 668.172 136.765 685.176ZM105.539 835.951C104.138 822.765 104.023 805.635 106.369 793.065C108.715 780.495 111.588 769.316 117.066 758.262C122.553 747.217 125.827 739.223 133.865 729.561C141.912 719.908 133.722 706.142 132.304 694.99C117.262 714.314 106.012 736.725 102.863 761.01C100.891 753.346 104.138 743.568 106.413 736.012C108.688 728.446 112.123 722.014 116.022 715.287C119.93 708.569 121.705 702.449 127.62 696.551C133.544 690.663 133.963 681.099 134.088 672.686C108.349 689.37 84.4843 709.755 77.9448 741.445C71.4053 773.134 82.6197 812.71 105.539 835.951Z" fill="#F6E2C6"/>
<path d="M80.5588 536.186C84.7698 534.375 88.0976 540.861 83.8331 543.029C79.5775 545.197 76.6958 537.846 80.5588 536.186Z" fill="#F9E5C8"/>
<path d="M101.971 554.029C100.838 546.018 109.92 555.252 101.971 554.029Z" fill="#F7E1C5"/>
<path d="M156.392 554.922C161.219 552.709 165.332 559.846 160.559 562.657C155.785 565.467 151.931 556.965 156.392 554.922Z" fill="#FBE9C9"/>
<path d="M120.706 576.333C122.115 573.362 120.411 567.679 125.167 567.412C124.542 574.906 129.217 578.082 135.873 579.01C135.275 583.203 129.012 580.607 126.755 583.274C124.489 585.933 127.005 591.83 122.49 591.5C123.793 583.444 117.762 581.347 111.784 579.01C113.372 575.736 117.592 576.333 120.706 576.333Z" fill="#F9E7CA"/>
<path d="M94.8333 591.5C98.4465 590.215 100.918 595.845 97.2243 597.442C93.5308 599.039 91.5769 592.66 94.8333 591.5Z" fill="#F7E2C4"/>
<path d="M125.167 619.157C130.109 617.631 134.445 625.571 128.735 628.078C123.034 630.585 119.832 620.807 125.167 619.157Z" fill="#F8E4C7"/>
<path d="M94.8334 633.431C94.4319 625.83 102.426 634.689 94.8334 633.431Z" fill="#F9E6CA"/>
<path d="M110.892 646.814C113.408 645.591 115.87 649.365 113.283 650.971C110.696 652.577 108.635 647.911 110.892 646.814Z" fill="#FCEED1"/>
<path d="M162.637 655.735C151.467 662.712 130.618 668.172 136.765 685.176C144.348 674.649 155.018 666.182 162.637 655.735Z" fill="#C99469"/>
<path d="M231.333 658.412C233.849 657.19 236.312 660.963 233.724 662.569C231.137 664.175 229.076 659.509 231.333 658.412Z" fill="#F9E9CC"/>
<path d="M105.539 835.951C82.6197 812.71 71.4053 773.134 77.9448 741.445C84.4843 709.755 108.349 689.37 134.088 672.686C133.963 681.099 133.544 690.663 127.62 696.551C121.705 702.449 119.93 708.569 116.022 715.287C112.123 722.014 108.688 728.446 106.413 736.012C104.138 743.568 100.891 753.346 102.863 761.01C106.012 736.725 117.262 714.314 132.304 694.99C133.722 706.142 141.912 719.908 133.865 729.561C125.827 739.223 122.553 747.217 117.066 758.262C111.588 769.316 108.715 780.495 106.369 793.065C104.023 805.635 104.138 822.765 105.539 835.951Z" fill="#C99469"/>
<path d="M229.549 691.422C232.306 690.975 232.859 688.245 234.902 686.961C235.232 689.905 238.926 690.797 239.363 693.206C237.239 694.134 236.16 696.676 234.01 697.667C233.135 695.258 229.513 694.232 229.549 691.422Z" fill="#FAECD0"/>
<path d="M198.324 697.667C201.937 696.382 204.408 702.011 200.715 703.608C197.021 705.205 195.067 698.826 198.324 697.667Z" fill="#F9E7CB"/>
<path d="M212.598 713.725C217.228 713.297 214.596 720.194 217.291 722.415C219.976 724.645 224.16 722.834 225.98 726.216C218.433 726.697 216.292 731.212 213.49 736.922C213.223 729.258 207.085 727.598 201.892 724.431C208.226 722.754 213.651 721.942 212.598 713.725Z" fill="#F9E7C9"/>
<path d="M141.225 728.892C161.852 771.466 133.731 814.905 126.951 856.471C125.657 834.961 135.748 816.547 142.118 795.804C148.488 775.07 146.436 749.92 141.225 728.892Z" fill="#F6E1C4"/>
<path d="M226.873 752.088C229.567 750.563 232.984 754.229 230.147 756.255C227.319 758.271 224.259 753.569 226.873 752.088Z" fill="#F8E5CB"/>
<path d="M180.48 753.873C184.691 752.061 188.019 758.547 183.755 760.715C179.499 762.883 176.617 755.532 180.48 753.873Z" fill="#F9E7CB"/>
<path d="M202.784 772.608C206.612 771.832 209.672 779.808 204.578 780.628C199.483 781.449 198.823 773.42 202.784 772.608Z" fill="#F6DFC1"/>
<path d="M164.422 795.804C169.177 793.627 174.405 800.559 169.079 804.03C163.761 807.5 159.586 798.025 164.422 795.804Z" fill="#FBEACC"/>
<path d="M175.127 853.794C181.373 836.897 197.913 822.881 214.177 816.118C230.45 809.356 223.206 828.225 225.088 838.627C226.971 849.03 221.065 860.878 219.735 870.745C229.469 867.694 239.309 865.312 250.069 866.284C245.965 897.545 213.133 929.306 180.48 920.706C210.011 921.973 239.88 899.285 245.608 869.853C227.64 865.704 214.454 878.337 207.914 891.934C201.375 905.539 187.93 912.882 176.02 917.137C186.253 889.097 179.285 855.48 154.608 836.843C139.486 862.154 141.502 897.715 162.637 918.922C128.78 920.59 98.8659 889.204 97.5098 856.471C113.685 858.701 130.885 865.125 140.333 879.667C141.404 871.289 142.171 857.461 144.999 849.539C147.827 841.616 151.699 829.429 158.846 836.174C165.992 842.919 169.177 847.736 175.127 853.794ZM182.265 906.431C189.072 898.42 192.578 889.266 202.115 882.566C211.643 875.857 218.201 869.139 220.03 856.765C221.85 844.382 223.545 829.376 221.52 816.324C211.072 820.758 199.662 825.834 191.855 834.836C184.049 843.847 172.754 852.054 178.973 864.232C185.182 876.401 184.825 893.111 182.265 906.431ZM100.186 860.039C104.79 888.33 128.771 912.944 157.284 917.137C148.497 907.448 142.483 895.485 142.118 882.343C129.833 871.78 116.664 861.493 100.186 860.039ZM183.157 912.676C195.37 905.521 204.711 892.978 210.814 880.559C198.663 887.776 189.206 900.365 183.157 912.676Z" fill="#F8E5C8"/>
<path d="M182.265 906.431C184.825 893.111 185.182 876.401 178.973 864.232C172.754 852.054 184.049 843.847 191.855 834.836C199.662 825.834 211.072 820.758 221.52 816.324C223.545 829.376 221.85 844.382 220.03 856.765C218.201 869.139 211.643 875.857 202.115 882.566C192.578 889.266 189.072 898.42 182.265 906.431Z" fill="#C99469"/>
<path d="M100.186 860.039C116.664 861.493 129.833 871.78 142.118 882.343C142.483 895.485 148.497 907.448 157.284 917.137C128.771 912.944 104.79 888.33 100.186 860.039Z" fill="#C99469"/>
<path d="M168.882 917.137C157.436 902.096 160.023 877.427 170.667 862.716C163.208 879.685 160.906 899.794 168.882 917.137Z" fill="#F4DEC3"/>
<path d="M75.2059 879.667C77.0615 878.837 78.7745 881.968 76.7225 882.914C74.6616 883.869 73.5554 880.398 75.2059 879.667Z" fill="#FAEAD0"/>
<path d="M210.814 880.559C198.663 887.776 189.206 900.365 183.157 912.676C195.37 905.521 204.711 892.978 210.814 880.559Z" fill="#CF926E"/>
<path d="M87.6961 897.51C90.5421 895.717 95.1813 900.409 91.461 903.059C87.7407 905.709 84.5378 899.508 87.6961 897.51Z" fill="#FAE6C9"/>
<path d="M176.02 1055.42C176.484 1031.32 169.525 1003.87 157.971 983.362C146.418 962.851 132.768 945.829 130.52 923.382C145.749 967.357 185.227 1004.58 176.02 1055.42Z" fill="#F6E2C5"/>
<path d="M112.676 925.167C112.186 932.366 119.912 924.73 112.676 925.167Z" fill="#F9E3C7"/>
<path d="M91.2647 928.735C93.4327 932.973 96.8407 936.426 101.078 938.549C93.3702 937.362 95.1724 944.732 91.2647 947.471C90.6134 945.142 90.0603 942.894 90.3725 940.333C87.8121 939.013 84.8323 939.2 82.3431 937.657C86.5184 935.141 91.9517 935.917 91.2647 928.735Z" fill="#F6E2C5"/>
<path d="M176.912 929.627C190.624 948.158 200.26 969.355 202.847 993.8C205.434 1018.24 214.043 1047.31 211.706 1072.37C209.957 1059.26 210.029 1045.19 205.461 1033.12C202.793 1047.59 201.018 1064.19 192.971 1076.83C197.208 1059.54 206.362 1035.63 200.938 1018.01C195.513 1000.4 185.387 987.047 176.84 971.63C168.302 956.205 158.069 944.473 149.255 929.627C171.202 952.529 188.117 981.703 201 1010.81C201.803 982.568 188.635 955.054 176.912 929.627Z" fill="#F7E3C7"/>
<path d="M227.765 941.226C221.502 946.213 215.605 935.899 223.304 934.088C223.804 937.041 227.533 938.264 227.765 941.226Z" fill="#F9E8CC"/>
<path d="M195.647 934.98C209.975 951.94 215.569 971.586 221.716 993.667C227.863 1015.74 232.449 1044.69 229.549 1068.8C228.38 1021.88 218.691 975.565 195.647 934.98Z" fill="#F4DCC0"/>
<path d="M110.892 961.745C117.11 959.702 119.823 969.186 114.166 971.264C108.519 973.334 105.851 963.396 110.892 961.745Z" fill="#F9E6C8"/>
<path d="M77.8824 974.235C80.8889 972.433 84.297 977.206 81.1566 979.294C78.0162 981.381 75.0988 975.904 77.8824 974.235Z" fill="#F9E5C7"/>
<path d="M111.784 994.755C114.791 992.953 118.199 997.726 115.059 999.813C111.918 1001.9 109.001 996.423 111.784 994.755Z" fill="#F2D7B9"/>
<path d="M140.333 1008.14C143.982 1005.76 148.996 1011.62 144.99 1014.58C140.994 1017.54 137.015 1010.31 140.333 1008.14Z" fill="#FBEDD1"/>
</svg>
