<svg width="807" height="850" viewBox="0 0 807 850" fill="none" xmlns="http://www.w3.org/2000/svg">
<path d="M432 73C390 68.94 337.75 76.35 300.07 86.07C262.4 95.8 231.26 111.25 199.7 130.7C168.13 150.14 146.49 169.61 121.25 197.25C96 224.89 79.42 249.53 61.92 282.92C44.42 316.32 33.64 354.32 26.98 392.98C20.31 431.63 21 486.23 29 524C37 561.77 48.16 598.18 66.25 630.75C84.33 663.32 102.2 687.41 127.75 714.25C153.3 741.09 176.61 759.52 208.31 778.7C240 797.87 274.25 810.79 311.33 820.67C348.41 830.55 403.49 834.38 443 830C482.5 825.61 522.63 814.56 556.98 798.98C591.32 783.39 617.7 767.22 646.25 743.25C674.8 719.27 693.34 698.18 715.08 668.08C736.82 637.99 750.11 607.12 763.07 571.07C776.04 535.02 783.67 486.7 783 446C782.33 405.3 774.49 358.84 760.98 323.02C747.46 287.21 732.69 257.85 710.75 228.25C688.81 198.64 668.9 176.9 640.25 153.75C611.59 130.6 583.11 114.28 548.68 100.32C514.25 86.36 469.8 76.66 432 73ZM390 94C429.65 94.35 478.97 100.21 515.01 111.99C551.05 123.77 581.07 139.11 611.03 159.97C640.98 180.84 661.45 202.04 684.75 230.25C708.06 258.45 722.31 286.45 736.93 321.07C751.55 355.7 759.66 401.56 761 441C762.34 480.44 756.05 529.69 743.07 565.07C730.1 600.46 716.25 630.19 694.75 659.75C673.25 689.32 652.79 710.14 624.25 733.25C595.7 756.36 567.3 771.17 532.77 785.77C498.24 800.37 451.24 808.29 412 809C372.76 809.71 326.36 803.9 290.78 791.22C255.2 778.55 224.21 764.89 194.92 743.08C165.62 721.28 143.61 701.99 120.75 673.25C97.89 644.51 82.76 617.41 68.23 582.77C53.7 548.13 45.88 503.7 44.2 464.75C42.52 425.81 48.82 375.7 61.32 340.32C73.82 304.95 88.23 274.84 109.3 245.3C130.37 215.76 150.66 193.75 179.25 171.25C207.83 148.75 236.43 131.82 271.02 119.02C305.62 106.23 351.36 93.66 390 94Z" fill="#C99469"/>
<path d="M407 670C417.05 664.88 423.34 655.54 431.25 647.25C439.16 638.96 445.11 630.25 451.7 620.7C458.28 611.15 463.52 601.27 468.23 590.23C472.94 579.19 478.26 568.58 481.22 556.22C484.18 543.86 488.34 531.02 489.67 517.67C491 504.32 492.9 486.95 492 473C491.1 459.05 490.18 443.43 487.78 430.22C485.38 417.01 482.39 404.11 479.33 391.67C476.27 379.24 471.9 368.03 467.32 356.68C462.74 345.33 458.57 334.5 452.92 324.08C447.28 313.66 442.94 302.93 436.75 293.25C430.57 283.56 424.27 273.91 418.25 264.75C412.24 255.58 403.76 241.45 396.75 252.75C389.74 264.06 383.71 270.01 377.77 280.77C371.83 291.53 365.74 299.71 360.32 310.32C354.9 320.93 349.75 330.89 344.78 341.78C339.8 352.66 335.4 363.89 331.32 375.32C327.24 386.75 322.56 398.79 321 411C390.75 476.25 428.99 574.68 407 670Z" fill="#B33951"/>
<path d="M370 668C362.63 662.43 355.24 657.25 348.75 650.25C342.27 643.25 336.97 636.35 331.25 628.75C325.52 621.16 320.65 614.49 316.25 605.75C311.86 597 307.28 588.61 303.98 579.03C300.67 569.44 297.59 560.44 294.99 550.01C292.4 539.57 291.59 527.26 290 516C288.41 504.74 290.05 491.35 290 480C289.95 468.65 292.32 455.43 294 445C295.68 434.57 301 423 294.25 415.75C287.5 408.5 281.84 403.66 274.75 397.25C267.66 390.83 260.58 385.65 252.75 380.25C244.91 374.85 237.92 370.28 229.23 365.77C220.53 361.26 212.29 356.79 202.74 353.26C193.2 349.72 185.14 345.34 174.07 343.93C163.01 342.52 167.75 362.51 166 373C164.25 383.49 167.11 400 167 411C166.89 422 170.18 434.16 171 445C171.82 455.84 174.52 467.64 177.22 477.78C179.93 487.92 182.63 497.39 186.07 506.93C189.52 516.47 193.09 525.88 197.23 534.77C201.37 543.66 206.03 551.02 210.75 559.25C215.46 567.48 221.53 574.54 226.75 582.25C231.96 589.97 238.58 596.06 245.25 602.75C251.91 609.44 257.8 614.99 264.92 621.08C272.04 627.18 280.03 631.83 287.92 637.08C295.81 642.33 304.2 645.97 312.75 650.25C321.31 654.52 330.96 658.94 340.31 661.69C349.65 664.45 360.71 669.27 370 668Z" fill="#54494B"/>
<path d="M636 344C586.06 352.74 541.45 382.27 507 421C518.59 467.01 513.56 527.37 498.98 569.98C484.4 612.58 461.91 639.13 430 670C497.25 659.05 553.06 624.71 591.23 564.23C629.4 503.75 643.45 418.48 636 344Z" fill="#E4BD6C"/>
<path d="M391 669C409.08 581.41 378.55 489.55 315 429C308.38 458.96 304.59 499.35 309.67 529.33C314.75 559.31 324.7 585.64 340.08 609.92C355.47 634.2 368.43 651.87 391 669Z" fill="#E5C3AB"/>
</svg>
