<svg width="807" height="967" viewBox="0 0 807 967" fill="none" xmlns="http://www.w3.org/2000/svg">
<path d="M432 73C390 68.94 337.75 76.35 300.07 86.07C262.4 95.8 231.26 111.25 199.7 130.7C168.13 150.14 146.49 169.61 121.25 197.25C96 224.89 79.42 249.53 61.92 282.92C44.42 316.32 33.64 354.32 26.98 392.98C20.31 431.63 21 486.23 29 524C37 561.77 48.16 598.18 66.25 630.75C84.33 663.32 102.2 687.41 127.75 714.25C153.3 741.09 176.61 759.52 208.31 778.7C240 797.87 274.25 810.79 311.33 820.67C348.41 830.55 403.49 834.38 443 830C482.5 825.61 522.63 814.56 556.98 798.98C591.32 783.39 617.7 767.22 646.25 743.25C674.8 719.27 693.34 698.18 715.08 668.08C736.82 637.99 750.11 607.12 763.07 571.07C776.04 535.02 783.67 486.7 783 446C782.33 405.3 774.49 358.84 760.98 323.02C747.46 287.21 732.69 257.85 710.75 228.25C688.81 198.64 668.9 176.9 640.25 153.75C611.59 130.6 583.11 114.28 548.68 100.32C514.25 86.36 469.8 76.66 432 73ZM390 94C429.65 94.35 478.97 100.21 515.01 111.99C551.05 123.77 581.07 139.11 611.03 159.97C640.98 180.84 661.45 202.04 684.75 230.25C708.06 258.45 722.31 286.45 736.93 321.07C751.55 355.7 759.66 401.56 761 441C762.34 480.44 756.05 529.69 743.07 565.07C730.1 600.46 716.25 630.19 694.75 659.75C673.25 689.32 652.79 710.14 624.25 733.25C595.7 756.36 567.3 771.17 532.77 785.77C498.24 800.37 451.24 808.29 412 809C372.76 809.71 326.36 803.9 290.78 791.22C255.2 778.55 224.21 764.89 194.92 743.08C165.62 721.28 143.61 701.99 120.75 673.25C97.89 644.51 82.76 617.41 68.23 582.77C53.7 548.13 45.88 503.7 44.2 464.75C42.52 425.81 48.82 375.7 61.32 340.32C73.82 304.95 88.23 274.84 109.3 245.3C130.37 215.76 150.66 193.75 179.25 171.25C207.83 148.75 236.43 131.82 271.02 119.02C305.62 106.23 351.36 93.66 390 94Z" fill="#E2D1AA"/>
<path d="M407 670C417.05 664.88 423.34 655.54 431.25 647.25C439.16 638.96 445.11 630.25 451.7 620.7C458.28 611.15 463.52 601.27 468.23 590.23C472.94 579.19 478.26 568.58 481.22 556.22C484.18 543.86 488.34 531.02 489.67 517.67C491 504.32 492.9 486.95 492 473C491.1 459.05 490.18 443.43 487.78 430.22C485.38 417.01 482.39 404.11 479.33 391.67C476.27 379.24 471.9 368.03 467.32 356.68C462.74 345.33 458.57 334.5 452.92 324.08C447.28 313.66 442.94 302.93 436.75 293.25C430.57 283.56 424.27 273.91 418.25 264.75C412.24 255.58 403.76 241.45 396.75 252.75C389.74 264.06 383.71 270.01 377.77 280.77C371.83 291.53 365.74 299.71 360.32 310.32C354.9 320.93 349.75 330.89 344.78 341.78C339.8 352.66 335.4 363.89 331.32 375.32C327.24 386.75 322.56 398.79 321 411C390.75 476.25 428.99 574.68 407 670Z" fill="#E5C3AB"/>
<path d="M370 668C362.63 662.43 355.24 657.25 348.75 650.25C342.27 643.25 336.97 636.35 331.25 628.75C325.52 621.16 320.65 614.49 316.25 605.75C311.86 597 307.28 588.61 303.98 579.03C300.67 569.44 297.59 560.44 294.99 550.01C292.4 539.57 291.59 527.26 290 516C288.41 504.74 290.05 491.35 290 480C289.95 468.65 292.32 455.43 294 445C295.68 434.57 301 423 294.25 415.75C287.5 408.5 281.84 403.66 274.75 397.25C267.66 390.83 260.58 385.65 252.75 380.25C244.91 374.85 237.92 370.28 229.23 365.77C220.53 361.26 212.29 356.79 202.74 353.26C193.2 349.72 185.14 345.34 174.07 343.93C163.01 342.52 167.75 362.51 166 373C164.25 383.49 167.11 400 167 411C166.89 422 170.18 434.16 171 445C171.82 455.84 174.52 467.64 177.22 477.78C179.93 487.92 182.63 497.39 186.07 506.93C189.52 516.47 193.09 525.88 197.23 534.77C201.37 543.66 206.03 551.02 210.75 559.25C215.46 567.48 221.53 574.54 226.75 582.25C231.96 589.97 238.58 596.06 245.25 602.75C251.91 609.44 257.8 614.99 264.92 621.08C272.04 627.18 280.03 631.83 287.92 637.08C295.81 642.33 304.2 645.97 312.75 650.25C321.31 654.52 330.96 658.94 340.31 661.69C349.65 664.45 360.71 669.27 370 668Z" fill="#B7B996"/>
<path d="M636 344C586.06 352.74 541.45 382.27 507 421C518.59 467.01 513.56 527.37 498.98 569.98C484.4 612.58 461.91 639.13 430 670C497.25 659.05 553.06 624.71 591.23 564.23C629.4 503.75 643.45 418.48 636 344Z" fill="#E4BD6C"/>
<path d="M391 669C409.08 581.41 378.55 489.55 315 429C308.38 458.96 304.59 499.35 309.67 529.33C314.75 559.31 324.7 585.64 340.08 609.92C355.47 634.2 368.43 651.87 391 669Z" fill="#E5C3AB"/>
<path d="M141.797 894.156C141.797 891.5 141.766 889.188 141.703 887.219C141.641 885.219 141.547 883.5 141.422 882.062C141.297 880.594 141.156 879.375 141 878.406C140.844 877.438 140.672 876.625 140.484 875.969V875.781H148.828V875.969C148.641 876.625 148.453 877.438 148.266 878.406C148.109 879.375 147.969 880.594 147.844 882.062C147.75 883.5 147.656 885.219 147.562 887.219C147.5 889.188 147.469 891.5 147.469 894.156V919.469C147.469 923.938 146.828 927.75 145.547 930.906C144.266 934.062 142.484 936.656 140.203 938.688C137.922 940.688 135.188 942.141 132 943.047C128.812 943.984 125.328 944.453 121.547 944.453C117.766 944.453 114.234 944.016 110.953 943.141C107.703 942.266 104.859 940.859 102.422 938.922C100.016 936.953 98.125 934.422 96.75 931.328C95.375 928.203 94.6875 924.406 94.6875 919.938V894.156C94.6875 891.5 94.6562 889.188 94.5938 887.219C94.5312 885.219 94.4375 883.5 94.3125 882.062C94.1875 880.594 94.0312 879.375 93.8438 878.406C93.6875 877.438 93.5156 876.625 93.3281 875.969V875.781H104.578V875.969C104.391 876.625 104.203 877.438 104.016 878.406C103.859 879.375 103.719 880.594 103.594 882.062C103.469 883.5 103.375 885.219 103.312 887.219C103.25 889.188 103.219 891.5 103.219 894.156V920.453C103.219 924.172 103.766 927.25 104.859 929.688C105.984 932.094 107.453 934.016 109.266 935.453C111.078 936.859 113.141 937.844 115.453 938.406C117.766 938.969 120.125 939.25 122.531 939.25C124.938 939.25 127.297 938.969 129.609 938.406C131.922 937.844 133.969 936.859 135.75 935.453C137.562 934.016 139.016 932.094 140.109 929.688C141.234 927.25 141.797 924.172 141.797 920.453V894.156ZM194.625 911.406C194.625 907.281 193.797 904.25 192.141 902.312C190.484 900.375 188.266 899.406 185.484 899.406C184.484 899.406 183.359 899.625 182.109 900.062C180.859 900.469 179.578 901.031 178.266 901.75C176.953 902.438 175.641 903.25 174.328 904.188C173.016 905.125 171.781 906.125 170.625 907.188L170.531 913.328V924.672C170.531 927.328 170.562 929.656 170.625 931.656C170.688 933.625 170.781 935.328 170.906 936.766C171.031 938.203 171.172 939.406 171.328 940.375C171.484 941.344 171.656 942.156 171.844 942.812V943H161.016V942.812C161.203 942.156 161.375 941.344 161.531 940.375C161.719 939.406 161.859 938.203 161.953 936.766C162.078 935.328 162.172 933.625 162.234 931.656C162.328 929.656 162.375 927.328 162.375 924.672V913.328C162.375 910.672 162.328 908.359 162.234 906.391C162.172 904.391 162.078 902.672 161.953 901.234C161.859 899.797 161.719 898.594 161.531 897.625C161.375 896.656 161.203 895.844 161.016 895.188V895H171.844V895.188C171.594 895.969 171.391 896.969 171.234 898.188C171.109 899.375 170.969 900.938 170.812 902.875C172.094 901.812 173.469 900.75 174.938 899.688C176.438 898.625 177.984 897.688 179.578 896.875C181.172 896.031 182.797 895.359 184.453 894.859C186.109 894.328 187.734 894.062 189.328 894.062C191.766 894.062 193.828 894.484 195.516 895.328C197.234 896.172 198.625 897.281 199.688 898.656C200.781 900.031 201.562 901.609 202.031 903.391C202.531 905.141 202.781 906.922 202.781 908.734V924.672C202.781 927.328 202.812 929.656 202.875 931.656C202.938 933.625 203.031 935.328 203.156 936.766C203.281 938.203 203.422 939.406 203.578 940.375C203.734 941.344 203.906 942.156 204.094 942.812V943H193.266V942.812C193.453 942.156 193.625 941.344 193.781 940.375C193.969 939.406 194.109 938.203 194.203 936.766C194.328 935.328 194.422 933.625 194.484 931.656C194.578 929.656 194.625 927.328 194.625 924.672V911.406ZM245.719 912.391C245.719 909.734 245.672 907.422 245.578 905.453C245.516 903.453 245.422 901.734 245.297 900.297C245.203 898.859 245.062 897.656 244.875 896.688C244.719 895.719 244.547 894.906 244.359 894.25V894.062H255.188V894.25C255.031 894.719 254.891 895.25 254.766 895.844C254.641 896.438 254.531 897.109 254.438 897.859C256.281 896.797 258.312 895.906 260.531 895.188C262.781 894.438 265.266 894.062 267.984 894.062C271.453 894.062 274.609 894.656 277.453 895.844C280.328 897 282.781 898.672 284.812 900.859C286.875 903.047 288.469 905.688 289.594 908.781C290.719 911.875 291.281 915.344 291.281 919.188C291.281 922.406 290.719 925.5 289.594 928.469C288.5 931.438 286.875 934.062 284.719 936.344C282.594 938.625 279.969 940.453 276.844 941.828C273.719 943.172 270.125 943.844 266.062 943.844C263.625 943.844 261.406 943.656 259.406 943.281C257.406 942.906 255.562 942.422 253.875 941.828V948.672C253.875 951.328 253.906 953.641 253.969 955.609C254.031 957.609 254.125 959.328 254.25 960.766C254.375 962.203 254.516 963.406 254.672 964.375C254.828 965.344 255 966.156 255.188 966.812V967H244.359V966.812C244.547 966.156 244.719 965.344 244.875 964.375C245.062 963.406 245.203 962.203 245.297 960.766C245.422 959.328 245.516 957.609 245.578 955.609C245.672 953.641 245.719 951.328 245.719 948.672V912.391ZM266.344 897.578C265.281 897.578 264.188 897.719 263.062 898C261.969 898.25 260.875 898.625 259.781 899.125C258.719 899.594 257.688 900.203 256.688 900.953C255.719 901.672 254.844 902.5 254.062 903.438C254 904.625 253.953 905.969 253.922 907.469C253.891 908.969 253.875 910.609 253.875 912.391V936.953C254.5 937.422 255.203 937.859 255.984 938.266C256.766 938.672 257.641 939.047 258.609 939.391C259.609 939.703 260.719 939.953 261.938 940.141C263.188 940.328 264.562 940.422 266.062 940.422C268.5 940.422 270.703 939.984 272.672 939.109C274.641 938.234 276.297 936.969 277.641 935.312C279.016 933.656 280.062 931.641 280.781 929.266C281.531 926.891 281.906 924.203 281.906 921.203C281.906 917.828 281.625 914.703 281.062 911.828C280.5 908.922 279.594 906.422 278.344 904.328C277.125 902.203 275.531 900.547 273.562 899.359C271.594 898.172 269.188 897.578 266.344 897.578ZM298.031 929.172C298.031 926.703 298.531 924.562 299.531 922.75C300.562 920.938 301.922 919.391 303.609 918.109C305.297 916.828 307.219 915.797 309.375 915.016C311.531 914.203 313.766 913.578 316.078 913.141C318.391 912.672 320.672 912.359 322.922 912.203C325.172 912.016 327.234 911.906 329.109 911.875V909.484C329.109 907.422 328.844 905.641 328.312 904.141C327.781 902.641 327.031 901.406 326.062 900.438C325.094 899.438 323.922 898.703 322.547 898.234C321.203 897.734 319.719 897.484 318.094 897.484C316.969 897.484 315.859 897.578 314.766 897.766C313.672 897.953 312.531 898.266 311.344 898.703C310.188 899.141 308.953 899.734 307.641 900.484C306.359 901.234 304.969 902.188 303.469 903.344L303 903.062L306.188 896.453C307.219 895.984 308.234 895.609 309.234 895.328C310.234 895.016 311.25 894.766 312.281 894.578C313.312 894.391 314.359 894.266 315.422 894.203C316.516 894.109 317.656 894.062 318.844 894.062C322.125 894.062 324.922 894.469 327.234 895.281C329.578 896.062 331.484 897.156 332.953 898.562C334.453 899.938 335.547 901.562 336.234 903.438C336.922 905.281 337.266 907.266 337.266 909.391V924.672C337.266 927.328 337.297 929.656 337.359 931.656C337.453 933.625 337.547 935.328 337.641 936.766C337.766 938.203 337.906 939.406 338.062 940.375C338.25 941.344 338.438 942.156 338.625 942.812V943H328.266V942.812C328.422 942.312 328.531 941.75 328.594 941.125C328.688 940.5 328.766 939.75 328.828 938.875C328.172 939.438 327.391 940.016 326.484 940.609C325.609 941.203 324.594 941.75 323.438 942.25C322.312 942.719 321.047 943.094 319.641 943.375C318.266 943.688 316.75 943.844 315.094 943.844C309.656 943.844 305.453 942.578 302.484 940.047C299.516 937.484 298.031 933.859 298.031 929.172ZM329.109 915.531C326.266 915.562 323.531 915.734 320.906 916.047C318.281 916.328 315.953 916.938 313.922 917.875C311.922 918.812 310.312 920.156 309.094 921.906C307.906 923.625 307.312 925.922 307.312 928.797C307.312 932.484 308.234 935.297 310.078 937.234C311.922 939.172 314.469 940.141 317.719 940.141C319.219 940.141 320.578 939.938 321.797 939.531C323.047 939.094 324.141 938.562 325.078 937.938C326.047 937.281 326.859 936.578 327.516 935.828C328.172 935.047 328.672 934.297 329.016 933.578C329.078 932.391 329.109 931.078 329.109 929.641C329.109 928.172 329.109 926.516 329.109 924.672V915.531ZM372.656 904.422L372 904.516C371.781 903.797 371.422 903.031 370.922 902.219C370.453 901.406 369.828 900.656 369.047 899.969C368.297 899.281 367.375 898.719 366.281 898.281C365.219 897.812 363.984 897.578 362.578 897.578C361.609 897.578 360.688 897.719 359.812 898C358.969 898.281 358.219 898.703 357.562 899.266C356.938 899.797 356.438 900.469 356.062 901.281C355.688 902.094 355.5 903.047 355.5 904.141C355.5 905.672 355.969 907.141 356.906 908.547C357.875 909.922 359.078 911.297 360.516 912.672C361.953 914.016 363.5 915.375 365.156 916.75C366.844 918.125 368.406 919.562 369.844 921.062C371.281 922.562 372.469 924.172 373.406 925.891C374.375 927.578 374.859 929.406 374.859 931.375C374.859 932.969 374.578 934.531 374.016 936.062C373.453 937.562 372.578 938.906 371.391 940.094C370.234 941.281 368.734 942.25 366.891 943C365.078 943.719 362.906 944.078 360.375 944.078C358.875 944.078 357.469 943.938 356.156 943.656C354.875 943.375 353.688 943.031 352.594 942.625C351.531 942.188 350.562 941.719 349.688 941.219C348.844 940.688 348.094 940.188 347.438 939.719L347.906 930.812H348.656C348.969 932.281 349.438 933.625 350.062 934.844C350.688 936.062 351.453 937.109 352.359 937.984C353.297 938.828 354.359 939.5 355.547 940C356.734 940.469 358.031 940.703 359.438 940.703C361.75 940.703 363.578 940.062 364.922 938.781C366.297 937.5 366.984 935.828 366.984 933.766C366.984 932.109 366.516 930.594 365.578 929.219C364.672 927.812 363.516 926.469 362.109 925.188C360.703 923.906 359.188 922.625 357.562 921.344C355.969 920.062 354.469 918.703 353.062 917.266C351.656 915.797 350.484 914.203 349.547 912.484C348.641 910.734 348.188 908.75 348.188 906.531C348.188 904.719 348.516 903.062 349.172 901.562C349.859 900.031 350.797 898.734 351.984 897.672C353.203 896.578 354.641 895.734 356.297 895.141C357.953 894.547 359.766 894.25 361.734 894.25C364.328 894.25 366.484 894.531 368.203 895.094C369.953 895.625 371.281 896.141 372.188 896.641L372.656 904.422ZM418.688 895V895.188C418.625 895.344 418.578 895.578 418.547 895.891C418.516 896.203 418.5 896.484 418.5 896.734C418.5 897.703 418.641 898.781 418.922 899.969C419.203 901.125 419.703 902.578 420.422 904.328L431.625 931L442.969 904.703C443.438 903.547 443.938 902.281 444.469 900.906C445 899.531 445.266 898.141 445.266 896.734C445.266 896.328 445.234 896 445.172 895.75C445.109 895.469 445.047 895.281 444.984 895.188V895H453.422V895.188C452.859 895.781 452.141 896.844 451.266 898.375C450.422 899.875 449.516 901.766 448.547 904.047L431.25 943.656H428.484L412.453 906.344C411.891 904.969 411.281 903.656 410.625 902.406C410 901.125 409.391 899.984 408.797 898.984C408.234 897.984 407.734 897.156 407.297 896.5C406.859 895.812 406.562 895.375 406.406 895.188V895H418.688ZM481.031 943.844C477.562 943.844 474.312 943.297 471.281 942.203C468.25 941.109 465.609 939.516 463.359 937.422C461.109 935.297 459.328 932.688 458.016 929.594C456.734 926.469 456.094 922.906 456.094 918.906C456.094 915.375 456.688 912.109 457.875 909.109C459.062 906.078 460.703 903.453 462.797 901.234C464.891 899.016 467.328 897.281 470.109 896.031C472.922 894.781 475.953 894.156 479.203 894.156C482.422 894.156 485.406 894.719 488.156 895.844C490.906 896.938 493.281 898.547 495.281 900.672C497.312 902.766 498.906 905.375 500.062 908.5C501.25 911.594 501.891 915.125 501.984 919.094C498.453 919.031 494.922 918.984 491.391 918.953C487.859 918.922 484.188 918.906 480.375 918.906C477.656 918.906 475 918.922 472.406 918.953C469.844 918.984 467.531 919.031 465.469 919.094C465.656 922.344 466.156 925.281 466.969 927.906C467.812 930.531 468.953 932.781 470.391 934.656C471.859 936.5 473.625 937.922 475.688 938.922C477.781 939.922 480.141 940.422 482.766 940.422C484.578 940.422 486.281 940.219 487.875 939.812C489.5 939.375 490.969 938.781 492.281 938.031C493.594 937.281 494.766 936.406 495.797 935.406C496.828 934.375 497.703 933.266 498.422 932.078L498.984 932.359L495.516 940.703C493.828 941.578 491.812 942.328 489.469 942.953C487.125 943.547 484.312 943.844 481.031 943.844ZM474.797 915.25C477.922 915.25 481.047 915.25 484.172 915.25C487.328 915.219 490.188 915.156 492.75 915.062C492.469 912.344 491.938 909.906 491.156 907.75C490.375 905.594 489.375 903.766 488.156 902.266C486.938 900.766 485.5 899.609 483.844 898.797C482.188 897.984 480.359 897.578 478.359 897.578C476.547 897.578 474.875 897.984 473.344 898.797C471.844 899.578 470.531 900.719 469.406 902.219C468.281 903.719 467.375 905.562 466.688 907.75C466 909.906 465.594 912.375 465.469 915.156C466.875 915.219 468.359 915.25 469.922 915.25C471.484 915.25 473.109 915.25 474.797 915.25ZM512.062 913.328C512.062 910.672 512.016 908.359 511.922 906.391C511.859 904.391 511.766 902.672 511.641 901.234C511.547 899.797 511.406 898.594 511.219 897.625C511.062 896.656 510.891 895.844 510.703 895.188V895H521.531V895.188C521.281 895.906 521.062 896.781 520.875 897.812C520.719 898.844 520.594 900.172 520.5 901.797C521.656 900.828 522.859 899.875 524.109 898.938C525.359 898 526.641 897.172 527.953 896.453C529.266 895.734 530.594 895.156 531.938 894.719C533.312 894.281 534.688 894.062 536.062 894.062C536.906 894.062 537.641 894.109 538.266 894.203C538.891 894.266 539.453 894.375 539.953 894.531C540.453 894.656 540.906 894.812 541.312 895C541.719 895.156 542.109 895.312 542.484 895.469L540.188 904.422L539.391 904.234C539.016 902.859 538.312 901.766 537.281 900.953C536.25 900.109 534.844 899.688 533.062 899.688C532.094 899.688 531.078 899.859 530.016 900.203C528.953 900.547 527.875 901.031 526.781 901.656C525.688 902.25 524.594 902.953 523.5 903.766C522.406 904.547 521.344 905.375 520.312 906.25C520.25 907.156 520.219 908.141 520.219 909.203C520.219 910.266 520.219 911.391 520.219 912.578V924.672C520.219 927.328 520.25 929.656 520.312 931.656C520.375 933.625 520.469 935.328 520.594 936.766C520.719 938.203 520.859 939.406 521.016 940.375C521.172 941.344 521.344 942.156 521.531 942.812V943H510.703V942.812C510.891 942.156 511.062 941.344 511.219 940.375C511.406 939.406 511.547 938.203 511.641 936.766C511.766 935.328 511.859 933.625 511.922 931.656C512.016 929.656 512.062 927.328 512.062 924.672V913.328ZM570.938 904.422L570.281 904.516C570.062 903.797 569.703 903.031 569.203 902.219C568.734 901.406 568.109 900.656 567.328 899.969C566.578 899.281 565.656 898.719 564.562 898.281C563.5 897.812 562.266 897.578 560.859 897.578C559.891 897.578 558.969 897.719 558.094 898C557.25 898.281 556.5 898.703 555.844 899.266C555.219 899.797 554.719 900.469 554.344 901.281C553.969 902.094 553.781 903.047 553.781 904.141C553.781 905.672 554.25 907.141 555.188 908.547C556.156 909.922 557.359 911.297 558.797 912.672C560.234 914.016 561.781 915.375 563.438 916.75C565.125 918.125 566.688 919.562 568.125 921.062C569.562 922.562 570.75 924.172 571.688 925.891C572.656 927.578 573.141 929.406 573.141 931.375C573.141 932.969 572.859 934.531 572.297 936.062C571.734 937.562 570.859 938.906 569.672 940.094C568.516 941.281 567.016 942.25 565.172 943C563.359 943.719 561.188 944.078 558.656 944.078C557.156 944.078 555.75 943.938 554.438 943.656C553.156 943.375 551.969 943.031 550.875 942.625C549.812 942.188 548.844 941.719 547.969 941.219C547.125 940.688 546.375 940.188 545.719 939.719L546.188 930.812H546.938C547.25 932.281 547.719 933.625 548.344 934.844C548.969 936.062 549.734 937.109 550.641 937.984C551.578 938.828 552.641 939.5 553.828 940C555.016 940.469 556.312 940.703 557.719 940.703C560.031 940.703 561.859 940.062 563.203 938.781C564.578 937.5 565.266 935.828 565.266 933.766C565.266 932.109 564.797 930.594 563.859 929.219C562.953 927.812 561.797 926.469 560.391 925.188C558.984 923.906 557.469 922.625 555.844 921.344C554.25 920.062 552.75 918.703 551.344 917.266C549.938 915.797 548.766 914.203 547.828 912.484C546.922 910.734 546.469 908.75 546.469 906.531C546.469 904.719 546.797 903.062 547.453 901.562C548.141 900.031 549.078 898.734 550.266 897.672C551.484 896.578 552.922 895.734 554.578 895.141C556.234 894.547 558.047 894.25 560.016 894.25C562.609 894.25 564.766 894.531 566.484 895.094C568.234 895.625 569.562 896.141 570.469 896.641L570.938 904.422ZM633.75 904.422L633.094 904.516C632.875 903.797 632.516 903.031 632.016 902.219C631.547 901.406 630.922 900.656 630.141 899.969C629.391 899.281 628.469 898.719 627.375 898.281C626.312 897.812 625.078 897.578 623.672 897.578C622.703 897.578 621.781 897.719 620.906 898C620.062 898.281 619.312 898.703 618.656 899.266C618.031 899.797 617.531 900.469 617.156 901.281C616.781 902.094 616.594 903.047 616.594 904.141C616.594 905.672 617.062 907.141 618 908.547C618.969 909.922 620.172 911.297 621.609 912.672C623.047 914.016 624.594 915.375 626.25 916.75C627.938 918.125 629.5 919.562 630.938 921.062C632.375 922.562 633.562 924.172 634.5 925.891C635.469 927.578 635.953 929.406 635.953 931.375C635.953 932.969 635.672 934.531 635.109 936.062C634.547 937.562 633.672 938.906 632.484 940.094C631.328 941.281 629.828 942.25 627.984 943C626.172 943.719 624 944.078 621.469 944.078C619.969 944.078 618.562 943.938 617.25 943.656C615.969 943.375 614.781 943.031 613.688 942.625C612.625 942.188 611.656 941.719 610.781 941.219C609.938 940.688 609.188 940.188 608.531 939.719L609 930.812H609.75C610.062 932.281 610.531 933.625 611.156 934.844C611.781 936.062 612.547 937.109 613.453 937.984C614.391 938.828 615.453 939.5 616.641 940C617.828 940.469 619.125 940.703 620.531 940.703C622.844 940.703 624.672 940.062 626.016 938.781C627.391 937.5 628.078 935.828 628.078 933.766C628.078 932.109 627.609 930.594 626.672 929.219C625.766 927.812 624.609 926.469 623.203 925.188C621.797 923.906 620.281 922.625 618.656 921.344C617.062 920.062 615.562 918.703 614.156 917.266C612.75 915.797 611.578 914.203 610.641 912.484C609.734 910.734 609.281 908.75 609.281 906.531C609.281 904.719 609.609 903.062 610.266 901.562C610.953 900.031 611.891 898.734 613.078 897.672C614.297 896.578 615.734 895.734 617.391 895.141C619.047 894.547 620.859 894.25 622.828 894.25C625.422 894.25 627.578 894.531 629.297 895.094C631.047 895.625 632.375 896.141 633.281 896.641L633.75 904.422ZM642.656 918.906C642.656 915.375 643.312 912.109 644.625 909.109C645.938 906.078 647.734 903.453 650.016 901.234C652.328 899.016 655.047 897.281 658.172 896.031C661.297 894.781 664.656 894.156 668.25 894.156C671.781 894.156 675.094 894.75 678.188 895.938C681.312 897.094 684.031 898.75 686.344 900.906C688.656 903.062 690.469 905.688 691.781 908.781C693.125 911.875 693.797 915.344 693.797 919.188C693.797 922.406 693.234 925.5 692.109 928.469C690.984 931.438 689.328 934.062 687.141 936.344C684.953 938.625 682.266 940.453 679.078 941.828C675.922 943.172 672.281 943.844 668.156 943.844C664.656 943.844 661.359 943.266 658.266 942.109C655.172 940.953 652.469 939.297 650.156 937.141C647.844 934.984 646.016 932.375 644.672 929.312C643.328 926.219 642.656 922.75 642.656 918.906ZM669.234 940.422C671.453 940.422 673.484 939.984 675.328 939.109C677.203 938.234 678.812 936.969 680.156 935.312C681.5 933.656 682.547 931.641 683.297 929.266C684.047 926.891 684.422 924.203 684.422 921.203C684.422 917.828 684.062 914.703 683.344 911.828C682.625 908.922 681.547 906.422 680.109 904.328C678.703 902.203 676.922 900.547 674.766 899.359C672.609 898.172 670.094 897.578 667.219 897.578C665 897.578 662.969 898.016 661.125 898.891C659.281 899.734 657.672 900.969 656.297 902.594C654.953 904.219 653.906 906.219 653.156 908.594C652.406 910.938 652.031 913.609 652.031 916.609C652.031 919.984 652.391 923.125 653.109 926.031C653.859 928.938 654.953 931.469 656.391 933.625C657.828 935.75 659.609 937.422 661.734 938.641C663.891 939.828 666.391 940.422 669.234 940.422ZM704.625 913.328C704.625 910.672 704.578 908.359 704.484 906.391C704.422 904.391 704.328 902.672 704.203 901.234C704.109 899.797 703.969 898.594 703.781 897.625C703.625 896.656 703.453 895.844 703.266 895.188V895H714.094V895.188C713.906 895.844 713.734 896.656 713.578 897.625C713.422 898.594 713.281 899.797 713.156 901.234C713.031 902.672 712.938 904.391 712.875 906.391C712.812 908.359 712.781 910.672 712.781 913.328V924.672C712.781 927.328 712.812 929.656 712.875 931.656C712.938 933.625 713.031 935.328 713.156 936.766C713.281 938.203 713.422 939.406 713.578 940.375C713.734 941.344 713.906 942.156 714.094 942.812V943H703.266V942.812C703.453 942.156 703.625 941.344 703.781 940.375C703.969 939.406 704.109 938.203 704.203 936.766C704.328 935.328 704.422 933.625 704.484 931.656C704.578 929.656 704.625 927.328 704.625 924.672V913.328ZM703.641 880.797C703.641 880.109 703.766 879.469 704.016 878.875C704.297 878.25 704.656 877.719 705.094 877.281C705.531 876.812 706.047 876.453 706.641 876.203C707.266 875.922 707.938 875.781 708.656 875.781C709.375 875.781 710.031 875.922 710.625 876.203C711.25 876.453 711.781 876.812 712.219 877.281C712.688 877.719 713.047 878.25 713.297 878.875C713.578 879.469 713.719 880.109 713.719 880.797C713.719 882.234 713.234 883.438 712.266 884.406C711.297 885.375 710.094 885.859 708.656 885.859C707.938 885.859 707.266 885.734 706.641 885.484C706.047 885.203 705.531 884.844 705.094 884.406C704.656 883.938 704.297 883.406 704.016 882.812C703.766 882.188 703.641 881.516 703.641 880.797Z" fill="#E2D1AA"/>
</svg>
