<svg width="510" height="512" viewBox="0 0 510 512" fill="none" xmlns="http://www.w3.org/2000/svg">
<path d="M457.971 512H438.411L428.106 489.006L438.411 468.871H490.734V479.236C490.733 497.331 476.065 512 457.971 512Z" fill="#FFCBBE"/>
<path d="M490.73 468.876V479.24C490.73 497.33 476.06 512 457.97 512H438.41L428.105 496.928H457.97C474.463 496.928 488.113 484.741 490.39 468.876H490.73Z" fill="#EAAC9D"/>
<path d="M237.29 0.00309056H275.76C357.533 0.00309056 423.822 66.2924 423.822 148.065V390.04H89.2274V148.065C89.2274 66.2924 155.517 0.00309056 237.29 0.00309056Z" fill="#544F57"/>
<path d="M249.052 0C217.271 0 191.517 66.2924 191.517 148.069V390.04H89.2295V148.069C89.2295 66.2924 155.522 0 237.288 0H249.052Z" fill="#454045"/>
<path d="M222.226 385.977H202.701C171.362 385.977 144.344 408.013 138.043 438.713L122.999 512.001H389.995L374.951 438.713C368.65 408.014 341.631 385.977 310.293 385.977H290.768" fill="#E7ECF1"/>
<path d="M226.309 385.977C208.713 385.977 193.549 408.013 190.016 438.713L181.568 512H123.002L138.043 438.713C144.347 408.013 171.369 385.977 202.707 385.977H226.309Z" fill="#C6D0DA"/>
<path d="M290.768 328.804V385.98C290.768 404.883 275.439 420.213 256.535 420.213C237.62 420.213 222.291 404.883 222.291 385.98V328.804H290.768Z" fill="#FFCBBE"/>
<path d="M267.714 418.346C264.212 419.551 260.451 420.21 256.537 420.21C237.623 420.21 222.293 404.881 222.293 385.977V328.802H244.648V385.977C244.648 400.977 254.291 413.72 267.714 418.346ZM113.506 281.195C88.8215 281.195 68.8102 261.184 68.8102 236.5C68.8102 233.102 69.1893 229.793 69.9073 226.613C75.7052 200.934 113.506 205.146 113.506 231.471H399.557C399.557 205.146 437.358 200.934 443.156 226.613C443.887 229.858 444.255 233.174 444.253 236.5C444.253 261.184 424.242 281.195 399.557 281.195" fill="#EAAC9D"/>
<path d="M113.513 253.352C112.274 253.354 111.053 253.058 109.953 252.488C108.853 251.918 107.906 251.092 107.193 250.079C107.005 249.821 100.04 240.351 92.7187 243.307C90.8263 244.034 88.7237 243.989 86.8645 243.18C85.0053 242.372 83.5383 240.865 82.7799 238.985C82.0215 237.104 82.0324 235.001 82.8103 233.129C83.5882 231.257 85.0708 229.765 86.9384 228.976C94.8389 225.788 103.439 227.07 111.153 232.584C116.341 236.293 119.499 240.711 119.842 241.203C120.651 242.361 121.126 243.718 121.217 245.128C121.308 246.537 121.012 247.944 120.359 249.196C119.707 250.448 118.724 251.498 117.517 252.231C116.31 252.963 114.925 253.351 113.513 253.352ZM399.551 253.327C398.012 253.327 396.461 252.869 395.111 251.915C391.64 249.462 390.789 244.688 393.222 241.203C393.565 240.711 396.723 236.293 401.911 232.584C409.624 227.069 418.223 225.79 426.126 228.976C427.993 229.765 429.476 231.257 430.254 233.129C431.032 235.001 431.043 237.104 430.284 238.985C429.526 240.865 428.059 242.372 426.2 243.18C424.34 243.989 422.238 244.034 420.345 243.307C412.96 240.327 405.938 249.986 405.868 250.084C405.149 251.088 404.201 251.906 403.102 252.47C402.004 253.034 400.786 253.328 399.551 253.327Z" fill="#DF9380"/>
<path d="M222.291 328.804H290.768V381.478H222.291V328.804Z" fill="#EAAC9D"/>
<path d="M399.55 180.55V259.112C399.55 316.679 352.883 363.357 295.306 363.357H217.743C160.176 363.357 113.499 316.689 113.499 259.112V181.447C131.249 180.931 155.674 177.903 181.985 172.556C235.905 161.595 297.799 140.878 326.592 112.084C326.592 112.084 355.077 170.29 399.55 180.55Z" fill="#FFCBBE"/>
<path d="M286.23 363.357H217.743C160.176 363.357 113.499 316.689 113.499 259.112V181.447C131.249 180.931 155.674 177.903 181.985 172.556V259.112C181.985 316.679 228.653 363.357 286.23 363.357Z" fill="#EAAC9D"/>
<path d="M340.781 280.756C353.711 280.756 364.193 274.383 364.193 266.52C364.193 258.658 353.711 252.284 340.781 252.284C327.851 252.284 317.369 258.658 317.369 266.52C317.369 274.383 327.851 280.756 340.781 280.756Z" fill="#E490B7"/>
<path d="M172.282 280.756C185.212 280.756 195.694 274.383 195.694 266.52C195.694 258.658 185.212 252.284 172.282 252.284C159.352 252.284 148.87 258.658 148.87 266.52C148.87 274.383 159.352 280.756 172.282 280.756Z" fill="#E490B7"/>
<path d="M270.46 250.582H242.605C240.555 250.582 238.59 249.768 237.141 248.319C235.692 246.87 234.878 244.905 234.878 242.856C234.878 240.807 235.692 238.841 237.141 237.392C238.59 235.944 240.555 235.129 242.605 235.129H270.46C272.509 235.129 274.474 235.944 275.923 237.392C277.372 238.841 278.186 240.807 278.186 242.856C278.186 244.905 277.372 246.87 275.923 248.319C274.474 249.768 272.509 250.582 270.46 250.582Z" fill="#EAAC9D"/>
<path d="M256.524 303.778C249.211 303.787 242.059 301.633 235.966 297.589C229.873 293.544 225.111 287.789 222.28 281.046C221.873 280.109 221.656 279.1 221.641 278.079C221.627 277.057 221.815 276.043 222.195 275.095C222.574 274.146 223.139 273.283 223.855 272.554C224.57 271.825 225.424 271.245 226.365 270.848C227.307 270.451 228.317 270.245 229.339 270.241C230.361 270.238 231.373 270.437 232.317 270.827C233.261 271.217 234.119 271.79 234.84 272.514C235.561 273.238 236.131 274.097 236.518 275.043C239.921 283.112 247.773 288.326 256.523 288.326C265.274 288.326 273.127 283.112 276.529 275.043C276.915 274.097 277.486 273.238 278.207 272.514C278.928 271.79 279.785 271.217 280.73 270.827C281.674 270.437 282.686 270.238 283.708 270.241C284.729 270.245 285.74 270.451 286.681 270.848C287.623 271.245 288.476 271.825 289.192 272.554C289.908 273.283 290.472 274.146 290.852 275.095C291.232 276.043 291.42 277.057 291.405 278.079C291.391 279.1 291.174 280.109 290.767 281.046C287.936 287.789 283.175 293.545 277.083 297.589C270.99 301.634 263.837 303.787 256.524 303.778Z" fill="#DD636E"/>
<path d="M438.41 468.876V512H355.882C346.816 512 339.265 505.51 337.627 496.928C337.398 495.768 337.285 494.588 337.287 493.405V468.876H438.41Z" fill="#E7ECF1"/>
<path d="M438.41 496.928V512H355.882C346.816 512 339.265 505.51 337.627 496.928H438.41Z" fill="#C6D0DA"/>
<path d="M55.0243 512H74.5844L84.8893 483.526L74.5844 468.872H22.2613V479.237C22.2613 497.331 36.929 512 55.0243 512Z" fill="#FFCBBE"/>
<path d="M22.2644 468.876V479.24C22.2644 497.33 36.9342 512 55.0243 512H74.5844L84.8893 496.928H55.0243C38.531 496.928 24.881 484.741 22.6043 468.876H22.2644Z" fill="#EAAC9D"/>
<path d="M74.5844 468.876V512H157.113C166.178 512 173.729 505.51 175.367 496.928C175.594 495.785 175.707 494.61 175.707 493.405V468.876H74.5844Z" fill="#E7ECF1"/>
<path d="M175.707 478.179V493.405C175.707 494.61 175.594 495.785 175.367 496.928C173.729 505.51 166.178 512 157.113 512H74.5844V496.774H157.113C166.178 496.774 173.729 490.284 175.367 481.702C175.594 480.559 175.707 479.384 175.707 478.179Z" fill="#C6D0DA"/>
<path d="M321.206 247.61C313.892 247.619 306.74 245.466 300.647 241.421C294.554 237.376 289.793 231.621 286.961 224.878C286.554 223.941 286.337 222.933 286.322 221.911C286.308 220.889 286.496 219.875 286.876 218.927C287.256 217.978 287.82 217.115 288.536 216.386C289.252 215.657 290.105 215.077 291.046 214.681C291.988 214.284 292.999 214.077 294.02 214.074C295.042 214.07 296.054 214.269 296.998 214.659C297.942 215.049 298.8 215.623 299.521 216.346C300.242 217.07 300.813 217.93 301.199 218.875C304.602 226.945 312.454 232.158 321.205 232.158C329.955 232.158 337.808 226.945 341.21 218.875C342.02 217.009 343.534 215.538 345.423 214.781C347.312 214.024 349.423 214.043 351.298 214.834C353.173 215.624 354.661 217.122 355.437 219.003C356.214 220.884 356.218 222.995 355.448 224.878C352.617 231.621 347.856 237.377 341.764 241.421C335.671 245.466 328.519 247.619 321.206 247.61ZM191.843 247.61C184.53 247.619 177.377 245.466 171.284 241.421C165.191 237.376 160.43 231.621 157.599 224.878C157.192 223.941 156.975 222.933 156.96 221.911C156.945 220.889 157.133 219.875 157.513 218.927C157.893 217.978 158.457 217.115 159.173 216.386C159.889 215.657 160.743 215.077 161.684 214.681C162.625 214.284 163.636 214.077 164.658 214.074C165.679 214.07 166.692 214.269 167.636 214.659C168.58 215.049 169.438 215.623 170.159 216.346C170.88 217.07 171.45 217.93 171.837 218.875C175.24 226.945 183.092 232.158 191.842 232.158C200.592 232.158 208.446 226.945 211.847 218.875C212.658 217.009 214.172 215.538 216.061 214.781C217.95 214.024 220.061 214.043 221.936 214.834C223.811 215.624 225.298 217.122 226.075 219.003C226.852 220.884 226.856 222.995 226.085 224.878C223.255 231.621 218.494 237.376 212.401 241.421C206.308 245.466 199.156 247.619 191.843 247.61Z" fill="#DF9380"/>
<path d="M461.252 48.2601C463.301 48.2601 465.266 47.446 466.715 45.997C468.164 44.5481 468.978 42.5828 468.978 40.5337C468.978 38.4845 468.164 36.5193 466.715 35.0703C465.266 33.6213 463.301 32.8073 461.252 32.8073H444.313V15.8679C444.313 13.8188 443.499 11.8535 442.05 10.4046C440.601 8.95558 438.635 8.14155 436.586 8.14155C434.537 8.14155 432.572 8.95558 431.123 10.4046C429.674 11.8535 428.86 13.8188 428.86 15.8679V32.8073H411.921C409.871 32.8073 407.906 33.6213 406.457 35.0703C405.008 36.5193 404.194 38.4845 404.194 40.5337C404.194 42.5828 405.008 44.5481 406.457 45.997C407.906 47.446 409.871 48.2601 411.921 48.2601H428.86V65.2004C428.86 67.2496 429.674 69.2148 431.123 70.6638C432.572 72.1128 434.537 72.9268 436.586 72.9268C438.635 72.9268 440.601 72.1128 442.05 70.6638C443.499 69.2148 444.313 67.2496 444.313 65.2004V48.2601H461.252ZM57.0589 167.478H40.1195V150.539C40.1195 148.49 39.3055 146.524 37.8565 145.076C36.4075 143.627 34.4423 142.813 32.3931 142.813C30.344 142.813 28.3787 143.627 26.9298 145.076C25.4808 146.524 24.6668 148.49 24.6668 150.539V167.478H7.72639C5.67722 167.478 3.71199 168.292 2.26301 169.741C0.814028 171.19 0 173.155 0 175.205C0 177.254 0.814028 179.219 2.26301 180.668C3.71199 182.117 5.67722 182.931 7.72639 182.931H24.6657V199.87C24.6657 201.92 25.4798 203.885 26.9287 205.334C28.3777 206.783 30.3429 207.597 32.3921 207.597C34.4413 207.597 36.4065 206.783 37.8555 205.334C39.3045 203.885 40.1185 201.92 40.1185 199.87V182.931H57.0578C59.107 182.931 61.0723 182.117 62.5214 180.668C63.9704 179.219 64.7846 177.254 64.7847 175.205C64.7849 173.156 63.971 171.191 62.5221 169.742C61.0732 168.293 59.108 167.478 57.0589 167.478ZM502.244 351.1H485.305V334.161C485.305 332.112 484.491 330.147 483.042 328.698C481.593 327.249 479.628 326.435 477.578 326.435C475.529 326.435 473.564 327.249 472.115 328.698C470.666 330.147 469.852 332.112 469.852 334.161V351.1H452.913C450.864 351.1 448.898 351.915 447.449 353.364C446 354.812 445.186 356.778 445.186 358.827C445.186 360.876 446 362.841 447.449 364.29C448.898 365.739 450.864 366.553 452.913 366.553H469.852V383.493C469.852 385.542 470.666 387.507 472.115 388.956C473.564 390.405 475.529 391.219 477.578 391.219C479.628 391.219 481.593 390.405 483.042 388.956C484.491 387.507 485.305 385.542 485.305 383.493V366.553H502.244C504.293 366.553 506.259 365.739 507.708 364.29C509.157 362.841 509.971 360.876 509.971 358.827C509.971 356.778 509.157 354.812 507.708 353.364C506.259 351.915 504.293 351.1 502.244 351.1Z" fill="#F4DD45"/>
</svg>
